<svg width="1440" height="359" viewBox="0 0 1440 359" fill="none" xmlns="http://www.w3.org/2000/svg">
<g clip-path="url(#clip0_564_960)">
<mask id="mask0_564_960" style="mask-type:alpha" maskUnits="userSpaceOnUse" x="0" y="-218" width="1440" height="577">
<rect y="-218" width="1440" height="577" fill="white"/>
</mask>
<g mask="url(#mask0_564_960)">
<rect y="-223" width="1440" height="580" fill="black"/>
<path fill-rule="evenodd" clip-rule="evenodd" d="M-72 -714L1506 -714V-713L-72 -713V-714ZM54 409V469H55V409H156V469H157V409H258V469H259V409H360V469H361V409H462V469H463V409H564V469H565V409H666V469H667V409L768 409V469H769V409H870V469H871V409H972V469H973V409H1074V469H1075V409H1176V469H1177V409H1278V469H1279V409H1380V469H1381V409H1506V408H1381V307H1506V306H1381V205H1506V204H1381V103H1506V102H1381V1.00012H1506V0.00012207H1381V-101H1506V-102H1381V-203H1506V-204H1381V-305H1506V-306H1381V-407H1506V-408H1381V-509H1506V-510H1381V-571H1380V-510L1279 -510V-571H1278V-510H1177V-571H1176V-510L1075 -510V-571H1074V-510H973V-571H972V-510H871V-571H870V-510L769 -510V-571H768V-510H667V-571H666V-510L565 -510V-571H564V-510H463V-571H462V-510H361V-571H360V-510L259 -510V-571H258V-510H157V-571H156V-510L55 -510V-571H54V-510H-72V-509H54L54 -408H-72V-407H54L54 -306H-72V-305H54V-204H-72V-203H54V-102H-72V-101H54L54 6.10352e-05H-72V1.00006H54V102H-72V103H54V204H-72V205H54V306H-72V307H54L54 408H-72V409H54ZM55 408H156L156 307H55L55 408ZM157 408H258V307H157L157 408ZM259 408H360V307H259V408ZM361 408H462V307H361V408ZM463 408H564V307H463V408ZM565 408H666V307H565V408ZM667 408L768 408V307L667 307V408ZM769 408H870V307H769V408ZM871 408H972V307H871V408ZM973 408H1074V307H973V408ZM1075 408H1176V307H1075V408ZM1177 408H1278V307H1177V408ZM1279 408H1380V307H1279V408ZM1380 -305V-204H1279V-305H1380ZM1380 -203H1279V-102H1380V-203ZM1278 -305V-204L1177 -204V-305L1278 -305ZM1278 -203L1177 -203V-102H1278V-203ZM1176 -305V-204H1075V-305H1176ZM1176 -203H1075V-102H1176V-203ZM1074 -305V-204H973V-305H1074ZM1074 -203H973V-102H1074V-203ZM972 -305V-204H871V-305H972ZM972 -203H871V-102H972V-203ZM870 -305V-204H769V-305H870ZM870 -203H769V-102H870V-203ZM768 -305V-204L667 -204V-305L768 -305ZM768 -203L667 -203V-102L768 -102V-203ZM666 -305V-204H565V-305H666ZM666 -203H565V-102H666V-203ZM564 -305V-204H463V-305H564ZM564 -203H463V-102H564V-203ZM462 -305V-204H361V-305H462ZM462 -203H361V-102H462V-203ZM360 -305V-204H259V-305H360ZM360 -203H259V-102H360V-203ZM258 -305V-204L157 -204V-305L258 -305ZM258 -203L157 -203V-102H258V-203ZM156 -305V-204H55V-305H156ZM156 -203H55V-102H156V-203ZM55 103V204H156V103H55ZM157 103V204H258V103H157ZM258 102H157V1.00006H258V102ZM259 103V204H360V103H259ZM360 102H259V1.00006H360V102ZM361 103V204H462V103H361ZM462 102H361V1.00006H462V102ZM463 103V204H564V103H463ZM564 102H463V1.00006H564V102ZM565 103V204H666V103H565ZM666 102H565V1.00006H666V102ZM667 103V204L768 204V103L667 103ZM768 102L667 102V1.00006L768 1.00012V102ZM769 103V204H870V103H769ZM870 102H769V1.00012H870V102ZM871 103V204H972V103H871ZM972 102H871V1.00012H972V102ZM973 103V204H1074V103H973ZM1074 102H973V1.00012H1074V102ZM1075 103V204H1176V103H1075ZM1176 102H1075V1.00012H1176V102ZM1177 103V204H1278V103H1177ZM1278 102H1177V1.00012H1278V102ZM1279 103V204H1380V103H1279ZM1380 102H1279V1.00012H1380V102ZM156 102H55V1.00006H156V102ZM1279 -509L1380 -509V-408H1279V-509ZM1177 -509H1278V-408L1177 -408V-509ZM1075 -509L1176 -509V-408H1075V-509ZM973 -509H1074V-408H973V-509ZM871 -509H972V-408H871V-509ZM769 -509L870 -509V-408H769V-509ZM667 -509H768V-408L667 -408V-509ZM565 -509L666 -509V-408H565V-509ZM463 -509H564V-408H463V-509ZM361 -509H462V-408H361V-509ZM259 -509L360 -509V-408H259V-509ZM157 -509H258V-408L157 -408V-509ZM55 -509L156 -509V-408H55L55 -509ZM55 306H156V205H55V306ZM157 306H258V205H157V306ZM259 306H360V205H259V306ZM361 306H462V205H361V306ZM463 306H564V205H463V306ZM565 306H666V205H565V306ZM667 306L768 306V205L667 205V306ZM769 306H870V205H769V306ZM871 306H972V205H871V306ZM973 306H1074V205H973V306ZM1075 306H1176V205H1075V306ZM1177 306H1278V205H1177V306ZM1279 306H1380V205H1279V306ZM1380 -407V-306H1279V-407H1380ZM1278 -407V-306L1177 -306V-407L1278 -407ZM1176 -407V-306H1075V-407H1176ZM1074 -407V-306H973V-407H1074ZM972 -407V-306H871V-407H972ZM870 -407V-306H769V-407H870ZM768 -407V-306L667 -306V-407L768 -407ZM666 -407V-306H565V-407H666ZM564 -407V-306H463V-407H564ZM462 -407V-306H361V-407H462ZM360 -407V-306H259V-407H360ZM258 -407V-306L157 -306V-407L258 -407ZM156 -407V-306H55L55 -407H156ZM258 6.10352e-05H157V-101H258V6.10352e-05ZM360 6.10352e-05H259V-101H360V6.10352e-05ZM462 6.10352e-05H361V-101H462V6.10352e-05ZM564 6.10352e-05H463V-101H564V6.10352e-05ZM666 6.10352e-05H565V-101H666V6.10352e-05ZM768 0.00012207L667 6.10352e-05V-101L768 -101V0.00012207ZM870 0.00012207H769V-101H870V0.00012207ZM972 0.00012207H871V-101H972V0.00012207ZM1074 0.00012207H973V-101H1074V0.00012207ZM1176 0.00012207H1075V-101H1176V0.00012207ZM1278 0.00012207H1177V-101H1278V0.00012207ZM1380 0.00012207H1279V-101H1380V0.00012207ZM156 6.10352e-05H55L55 -101H156V6.10352e-05ZM-72 -612L1506 -612V-611L-72 -611V-612Z" fill="white" fill-opacity="0.1"/>
<g filter="url(#filter0_f_564_960)">
<path d="M41 22.3701L726.815 -276.819C782.934 -301.302 839.249 -242.806 812.654 -187.657L645.645 158.661C620.608 210.579 669.482 267.393 724.558 250.394L1073.06 142.831C1124.24 127.035 1171.92 175.565 1155.24 226.46L1053.08 538" stroke="#FFA600" stroke-opacity="0.1" stroke-width="70"/>
</g>
<g filter="url(#filter1_f_564_960)">
<ellipse cx="1321" cy="-138" rx="173" ry="174" fill="#286D50" fill-opacity="0.1"/>
<path d="M1321 36.5C1416.82 36.5 1494.5 -41.629 1494.5 -138C1494.5 -234.371 1416.82 -312.5 1321 -312.5C1225.18 -312.5 1147.5 -234.371 1147.5 -138C1147.5 -41.629 1225.18 36.5 1321 36.5Z" stroke="#CDCDCD" stroke-opacity="0.1"/>
</g>
<g filter="url(#filter2_f_564_960)">
<ellipse cx="162" cy="254" rx="173" ry="174" fill="#7A2437" fill-opacity="0.1"/>
<path d="M162 428.5C257.824 428.5 335.5 350.371 335.5 254C335.5 157.629 257.824 79.5 162 79.5C66.1759 79.5 -11.5 157.629 -11.5 254C-11.5 350.371 66.1759 428.5 162 428.5Z" stroke="#CDCDCD" stroke-opacity="0.1"/>
</g>
<rect y="-35" width="1440" height="394" fill="url(#paint0_linear_564_960)"/>
</g>
</g>
<defs>
<filter id="filter0_f_564_960" x="-259.795" y="-604.472" width="1740.28" height="1440.18" filterUnits="userSpaceOnUse" color-interpolation-filters="sRGB">
<feFlood flood-opacity="0" result="BackgroundImageFix"/>
<feBlend mode="normal" in="SourceGraphic" in2="BackgroundImageFix" result="shape"/>
<feGaussianBlur stdDeviation="143.4" result="effect1_foregroundBlur_564_960"/>
</filter>
<filter id="filter1_f_564_960" x="829.4" y="-630.6" width="983.2" height="985.2" filterUnits="userSpaceOnUse" color-interpolation-filters="sRGB">
<feFlood flood-opacity="0" result="BackgroundImageFix"/>
<feBlend mode="normal" in="SourceGraphic" in2="BackgroundImageFix" result="shape"/>
<feGaussianBlur stdDeviation="158.8" result="effect1_foregroundBlur_564_960"/>
</filter>
<filter id="filter2_f_564_960" x="-329.6" y="-238.6" width="983.2" height="985.2" filterUnits="userSpaceOnUse" color-interpolation-filters="sRGB">
<feFlood flood-opacity="0" result="BackgroundImageFix"/>
<feBlend mode="normal" in="SourceGraphic" in2="BackgroundImageFix" result="shape"/>
<feGaussianBlur stdDeviation="158.8" result="effect1_foregroundBlur_564_960"/>
</filter>
<linearGradient id="paint0_linear_564_960" x1="720" y1="-35" x2="720" y2="359" gradientUnits="userSpaceOnUse">
<stop stop-opacity="0"/>
<stop offset="1"/>
</linearGradient>
<clipPath id="clip0_564_960">
<rect width="1440" height="359" fill="white"/>
</clipPath>
</defs>
</svg>
