<svg width="100" height="100" viewBox="0 0 100 100" fill="none" xmlns="http://www.w3.org/2000/svg">
<path fill-rule="evenodd" clip-rule="evenodd" d="M41.0728 10.7754C32.9051 10.7754 28.2853 13.893 26.6289 15.2859C26.1561 15.6834 25.5718 15.9481 24.9543 15.9601C23.3133 15.9919 19.9289 16.0807 17.5432 16.3013C15.5763 16.4831 15.3392 19.2407 17.1921 19.9248C20.023 20.9698 23.0037 22.1826 24.8516 23.2532C27.3042 24.6742 29.2994 26.7358 30.5816 28.2771C31.4595 29.3323 31.0174 30.9261 29.9106 31.738C27.5728 33.453 23.944 37.0211 21.6699 43.6737C21.6522 43.7254 21.633 43.7763 21.6121 43.8268C21.3255 44.5195 19.1475 49.9164 19.1475 53.9131C19.1475 63.2396 18.1796 66.9201 18.0853 67.2566C18.08 67.2755 18.075 67.2911 18.0688 67.3098C17.6926 68.4398 17.0067 69.7692 16.3028 70.9806C15.401 72.5323 16.479 74.5907 18.2737 74.5907H26.4045C27.2983 74.5907 28.1035 74.0507 28.4427 73.2238L29.587 70.4348C30.1539 69.0528 31.9328 68.5844 33.1896 69.3917C35.944 71.1609 40.8376 73.7702 46.9553 74.769C49.689 75.2153 52.3796 75.2931 54.831 75.1757C57.2367 75.0605 58.2698 77.7176 55.998 78.5172C53.6154 79.3558 50.8262 80.0784 47.6683 80.4731C37.7574 81.712 30.268 79.453 28.4727 78.8387C28.1967 78.7442 27.91 78.694 27.6184 78.7007L20.3051 78.8689C18.0864 78.9199 17.4029 81.712 19.3984 82.6831C22.1728 84.0332 25.3538 85.4195 28.0602 86.1773C34.4711 87.9724 38.3695 88.2756 44.9945 88.1381C51.6428 88.0001 55.5658 87.6964 61.7504 85.286C62.82 84.8692 68.8806 82.2235 72.624 79.0471C74.9187 77.0999 77.4623 73.8942 78.9156 71.9554C79.6044 71.0364 80.8757 70.7577 81.8683 71.3352L89.8545 75.9817C89.8946 76.0051 89.9355 76.0273 89.9784 76.0451C90.2666 76.1647 91.4748 76.5734 92.4103 75.482C93.1125 74.6628 93.0463 73.8436 92.9181 73.3775C92.8444 73.1099 92.6555 72.8974 92.4387 72.7239L87.026 68.3938C85.8831 67.4794 85.9312 65.7241 87.1109 64.8577C89.0459 63.4366 91.4479 61.614 91.3408 61.3998C91.2119 61.1421 86.7977 62.0955 84.3615 62.6435C83.4217 62.855 82.4513 62.4422 81.9373 61.6276C80.368 59.1401 76.8477 53.847 73.337 50.5263C70.9475 48.2661 67.4086 45.7489 64.8031 43.9996C63.3511 43.0248 63.363 40.5231 64.4229 39.132C65.9493 37.1285 67.359 33.8422 66.7416 28.7792C65.8815 21.7268 59.2121 16.3339 58.7458 15.9647C58.7273 15.95 58.7128 15.9392 58.6936 15.9256C58.2124 15.5859 51.2186 10.7754 41.0728 10.7754ZM34.6718 33.2921C31.0032 36.2001 25.0908 42.3268 25.9553 51.1309C27.2287 64.1004 38.4562 69.9782 38.5031 70.0027L38.5033 70.0028L38.5034 70.0029C38.5501 70.0273 47.3656 74.627 58.4702 72.8513C64.6957 71.8559 71.8297 69.6639 75.6017 68.4196C76.7986 68.0248 77.0856 66.4925 76.1317 65.6688C75.908 65.4757 75.6448 65.3479 75.3548 65.2912C73.0127 64.8334 61.6265 62.4429 51.2242 57.3622C38.647 51.5144 36.8784 44.6867 36.705 41.9882C36.6575 41.2492 37.1403 40.6263 37.8287 40.3533C38.77 39.98 40.1451 39.4694 41.2458 39.2025C42.9246 38.7953 45.661 38.5438 46.1868 38.4979C46.2468 38.4927 46.2994 38.4904 46.3596 38.4891C47.3669 38.4666 57.098 38.0303 56.5262 29.5885C55.9962 21.7646 46.8009 21.9026 45.9806 21.9306C45.9373 21.932 45.9059 21.9348 45.8629 21.9396C45.1235 22.0218 37.6952 22.8379 35.8485 22.6451C35.0926 22.5662 34.1644 22.3875 33.2238 22.1724C31.3608 21.7463 29.7865 23.6152 30.8722 25.1879C31.1655 25.6129 31.472 26.0206 31.7837 26.3839C32.5512 27.2783 33.7255 28.3407 34.8059 29.2544C36.0214 30.2823 35.9192 32.3032 34.6718 33.2921ZM35.8501 21.1602C37.507 21.1602 38.8501 19.817 38.8501 18.1602C38.8501 16.5033 37.507 15.1602 35.8501 15.1602C34.1932 15.1602 32.8501 16.5033 32.8501 18.1602C32.8501 19.817 34.1932 21.1602 35.8501 21.1602Z" fill="#FFA600"/>
<path d="M26.6289 15.2859L27.3378 16.129L27.3378 16.129L26.6289 15.2859ZM24.9543 15.9601L24.9756 17.0614L24.9543 15.9601ZM17.5432 16.3013L17.6446 17.3982H17.6446L17.5432 16.3013ZM17.1921 19.9248L16.8107 20.9582L16.8107 20.9582L17.1921 19.9248ZM24.8516 23.2532L24.2994 24.2064L24.8516 23.2532ZM30.5816 28.2771L31.4284 27.5726L31.4284 27.5726L30.5816 28.2771ZM29.9106 31.738L30.5622 32.6262L29.9106 31.738ZM21.6699 43.6737L22.7122 44.03L22.7122 44.03L21.6699 43.6737ZM21.6121 43.8268L20.5942 43.4057H20.5942L21.6121 43.8268ZM18.0853 67.2566L17.0246 66.9593L17.0246 66.9593L18.0853 67.2566ZM18.0688 67.3098L19.114 67.6577L19.114 67.6577L18.0688 67.3098ZM16.3028 70.9806L15.3504 70.4271H15.3503L16.3028 70.9806ZM28.4427 73.2238L27.4236 72.8057H27.4236L28.4427 73.2238ZM29.587 70.4348L30.6061 70.8529L29.587 70.4348ZM33.1896 69.3917L32.5943 70.3185L33.1896 69.3917ZM46.9553 74.769L46.7778 75.8561H46.7778L46.9553 74.769ZM54.831 75.1757L54.7783 74.0754H54.7783L54.831 75.1757ZM55.998 78.5172L56.3637 79.5563V79.5563L55.998 78.5172ZM47.6683 80.4731L47.8049 81.5662L47.6683 80.4731ZM28.4727 78.8387L28.8294 77.7965L28.8294 77.7965L28.4727 78.8387ZM27.6184 78.7007L27.6437 79.802H27.6437L27.6184 78.7007ZM20.3051 78.8689L20.3304 79.9701L20.3051 78.8689ZM19.3984 82.6831L19.8804 81.6926H19.8804L19.3984 82.6831ZM28.0602 86.1773L28.3572 85.1166L28.3572 85.1165L28.0602 86.1773ZM44.9945 88.1381L44.9716 87.0368H44.9716L44.9945 88.1381ZM61.7504 85.286L61.3504 84.2597H61.3504L61.7504 85.286ZM72.624 79.0471L71.9113 78.2072L72.624 79.0471ZM78.9156 71.9554L78.0342 71.2947L78.0342 71.2947L78.9156 71.9554ZM81.8683 71.3352L81.3144 72.2873V72.2873L81.8683 71.3352ZM89.8545 75.9817L90.4084 75.0296L90.4084 75.0296L89.8545 75.9817ZM89.9784 76.0451L89.5561 77.0625L89.5562 77.0625L89.9784 76.0451ZM92.4103 75.482L91.574 74.7651V74.7651L92.4103 75.482ZM92.9181 73.3775L93.9801 73.0852V73.0852L92.9181 73.3775ZM92.4387 72.7239L91.7506 73.5841H91.7506L92.4387 72.7239ZM87.026 68.3938L86.3379 69.254V69.254L87.026 68.3938ZM87.1109 64.8577L87.7629 65.7455L87.1109 64.8577ZM91.3408 61.3998L90.3555 61.8925L90.3555 61.8925L91.3408 61.3998ZM84.3615 62.6435L84.1197 61.5689H84.1197L84.3615 62.6435ZM81.9373 61.6276L81.0057 62.2153L81.9373 61.6276ZM73.337 50.5263L72.5801 51.3265L73.337 50.5263ZM64.8031 43.9996L64.1891 44.9142L64.8031 43.9996ZM64.4229 39.132L65.2991 39.7996L65.2991 39.7996L64.4229 39.132ZM66.7416 28.7792L65.6481 28.9125L66.7416 28.7792ZM58.7458 15.9647L58.0619 16.8282L58.0619 16.8282L58.7458 15.9647ZM58.6936 15.9256L59.3289 15.0257L59.3288 15.0257L58.6936 15.9256ZM25.9553 51.1309L24.859 51.2385L25.9553 51.1309ZM34.6718 33.2921L35.356 34.1553L34.6718 33.2921ZM38.5031 70.0027L37.9931 70.9791L37.9955 70.9803L38.5031 70.0027ZM38.5033 70.0028L39.0231 69.0315L39.0109 69.0252L38.5033 70.0028ZM38.5034 70.0029L37.9836 70.9741L37.993 70.979L38.5034 70.0029ZM58.4702 72.8513L58.6442 73.9391L58.4702 72.8513ZM75.6017 68.4196L75.2566 67.3735H75.2566L75.6017 68.4196ZM76.1317 65.6688L76.8516 64.8351L76.1317 65.6688ZM75.3548 65.2912L75.1435 66.3723H75.1435L75.3548 65.2912ZM51.2242 57.3622L51.7077 56.3724L51.6982 56.3678L51.6886 56.3633L51.2242 57.3622ZM36.705 41.9882L37.8042 41.9176V41.9176L36.705 41.9882ZM37.8287 40.3533L38.2348 41.3773H38.2348L37.8287 40.3533ZM41.2458 39.2025L40.9861 38.132L41.2458 39.2025ZM46.1868 38.4979L46.0911 37.4005L46.0911 37.4005L46.1868 38.4979ZM46.3596 38.4891L46.3842 39.5904H46.3842L46.3596 38.4891ZM56.5262 29.5885L57.6252 29.5141V29.5141L56.5262 29.5885ZM45.9806 21.9306L46.0181 23.0315H46.0181L45.9806 21.9306ZM45.8629 21.9396L45.7412 20.8448L45.7411 20.8448L45.8629 21.9396ZM35.8485 22.6451L35.9629 21.5495L35.8485 22.6451ZM33.2238 22.1724L32.9782 23.2462L33.2238 22.1724ZM30.8722 25.1879L31.7787 24.5622L31.7787 24.5622L30.8722 25.1879ZM31.7837 26.3839L30.9477 27.1012L30.9477 27.1012L31.7837 26.3839ZM34.8059 29.2544L34.0946 30.0955L34.0946 30.0955L34.8059 29.2544ZM27.3378 16.129C28.8344 14.8705 33.2109 11.8769 41.0728 11.8769V9.67384C32.5993 9.67384 27.7361 12.9156 25.9199 14.4428L27.3378 16.129ZM24.9756 17.0614C25.8965 17.0436 26.7155 16.6523 27.3378 16.129L25.9199 14.4428C25.5968 14.7145 25.2472 14.8526 24.933 14.8587L24.9756 17.0614ZM17.6446 17.3982C19.9855 17.1818 23.3327 17.0932 24.9756 17.0614L24.933 14.8587C23.2938 14.8905 19.8724 14.9797 17.4418 15.2044L17.6446 17.3982ZM17.5736 18.8914C17.1769 18.7449 16.998 18.396 17.0321 18.0258C17.0491 17.8419 17.119 17.6917 17.2105 17.5918C17.2922 17.5026 17.4206 17.4189 17.6446 17.3982L17.4418 15.2044C15.8486 15.3517 14.9527 16.5834 14.8383 17.8236C14.7254 19.0487 15.3544 20.4206 16.8107 20.9582L17.5736 18.8914ZM25.4038 22.3001C23.4651 21.1769 20.4034 19.9361 17.5736 18.8914L16.8107 20.9582C19.6425 22.0036 22.5423 23.1884 24.2994 24.2064L25.4038 22.3001ZM31.4284 27.5726C30.1072 25.9845 28.0155 23.8132 25.4038 22.3001L24.2994 24.2064C26.5929 25.5352 28.4915 27.4871 29.7348 28.9816L31.4284 27.5726ZM30.5622 32.6262C32.01 31.5641 32.8362 29.2648 31.4284 27.5726L29.7348 28.9816C30.0828 29.3999 30.0249 30.2881 29.2591 30.8498L30.5622 32.6262ZM22.7122 44.03C24.904 37.6183 28.3806 34.2266 30.5622 32.6262L29.2591 30.8498C26.765 32.6795 22.984 36.4238 20.6276 43.3174L22.7122 44.03ZM22.63 44.2479C22.6594 44.1767 22.6868 44.1042 22.7122 44.03L20.6276 43.3174C20.6176 43.3466 20.6065 43.3759 20.5942 43.4057L22.63 44.2479ZM20.249 53.9131C20.249 52.0789 20.7555 49.8546 21.3275 47.9473C21.8933 46.0603 22.4946 44.5751 22.63 44.2479L20.5942 43.4057C20.443 43.7712 19.812 45.3308 19.2172 47.3146C18.6284 49.2781 18.0459 51.7507 18.0459 53.9131H20.249ZM19.146 67.5538C19.2741 67.0967 20.249 63.3117 20.249 53.9131H18.0459C18.0459 63.1674 17.0851 66.7436 17.0246 66.9593L19.146 67.5538ZM19.114 67.6577C19.1234 67.6295 19.1342 67.5958 19.146 67.5538L17.0246 66.9593C17.0249 66.9582 17.0254 66.9567 17.0257 66.9556C17.0259 66.955 17.0255 66.9563 17.0237 66.9618L19.114 67.6577ZM17.2552 71.534C17.9696 70.3047 18.7013 68.8972 19.114 67.6577L17.0237 66.9618C16.6838 67.9825 16.0439 69.2337 15.3504 70.4271L17.2552 71.534ZM18.2737 73.4892C17.4121 73.4892 16.7373 72.4251 17.2552 71.534L15.3503 70.4271C14.0647 72.6395 15.5458 75.6923 18.2737 75.6923V73.4892ZM26.4045 73.4892H18.2737V75.6923H26.4045V73.4892ZM27.4236 72.8057C27.254 73.2192 26.8514 73.4892 26.4045 73.4892V75.6923C27.7452 75.6923 28.953 74.8823 29.4619 73.6419L27.4236 72.8057ZM28.5678 70.0167L27.4236 72.8057L29.4619 73.6419L30.6061 70.8529L28.5678 70.0167ZM33.7849 68.4648C32.0106 67.3251 29.423 67.9323 28.5678 70.0167L30.6061 70.8529C30.8849 70.1733 31.8549 69.8436 32.5943 70.3185L33.7849 68.4648ZM47.1328 73.6818C41.215 72.7157 36.4648 70.1863 33.7849 68.4648L32.5943 70.3185C35.4231 72.1356 40.4602 74.8247 46.7778 75.8561L47.1328 73.6818ZM54.7783 74.0754C52.3865 74.1899 49.775 74.1132 47.1328 73.6818L46.7778 75.8561C49.603 76.3174 52.3726 76.3962 54.8837 76.276L54.7783 74.0754ZM56.3637 79.5563C57.1381 79.2837 57.7521 78.806 58.0919 78.1454C58.4319 77.4843 58.4351 76.7577 58.2027 76.1241C57.7405 74.8637 56.3968 73.9979 54.7783 74.0754L54.8837 76.276C55.6709 76.2383 56.0466 76.6434 56.1344 76.8827C56.177 76.9988 56.1629 77.0792 56.1328 77.1377C56.1025 77.1966 55.9937 77.3509 55.6322 77.4782L56.3637 79.5563ZM47.8049 81.5662C51.0481 81.1608 53.914 80.4185 56.3637 79.5563L55.6322 77.4781C53.3168 78.2932 50.6044 78.996 47.5316 79.3801L47.8049 81.5662ZM28.1161 79.8809C30.0041 80.527 37.6705 82.833 47.8049 81.5662L47.5316 79.3801C37.8442 80.591 30.5319 78.3791 28.8294 77.7965L28.1161 79.8809ZM27.6437 79.802C27.791 79.7986 27.9483 79.8235 28.1161 79.8809L28.8294 77.7965C28.4451 77.665 28.0291 77.5895 27.593 77.5995L27.6437 79.802ZM20.3304 79.9701L27.6437 79.802L27.593 77.5995L20.2797 77.7676L20.3304 79.9701ZM19.8804 81.6926C19.3699 81.4442 19.2587 81.0363 19.3424 80.6887C19.4287 80.3301 19.7395 79.9837 20.3304 79.9701L20.2797 77.7676C18.652 77.805 17.5117 78.8802 17.2005 80.1732C16.8866 81.4772 17.4313 82.9509 18.9164 83.6736L19.8804 81.6926ZM28.3572 85.1165C25.748 84.386 22.6381 83.0346 19.8804 81.6926L18.9164 83.6736C21.7074 85.0318 24.9597 86.453 27.7632 87.2381L28.3572 85.1165ZM44.9716 87.0368C38.4265 87.1727 34.64 86.8758 28.3572 85.1166L27.7632 87.238C34.3021 89.069 38.3124 89.3786 45.0173 89.2394L44.9716 87.0368ZM61.3504 84.2597C55.3405 86.602 51.5659 86.8999 44.9716 87.0368L45.0173 89.2394C51.7196 89.1003 55.7912 88.7909 62.1504 86.3124L61.3504 84.2597ZM71.9113 78.2072C68.3129 81.2606 62.3939 83.853 61.3504 84.2597L62.1504 86.3124C63.246 85.8854 69.4484 83.1864 73.3367 79.887L71.9113 78.2072ZM78.0342 71.2947C76.5811 73.2332 74.102 76.3483 71.9113 78.2072L73.3367 79.887C75.7354 77.8516 78.3436 74.5551 79.797 72.616L78.0342 71.2947ZM82.4223 70.3831C80.9307 69.5153 79.0472 69.9433 78.0342 71.2947L79.797 72.616C80.1617 72.1295 80.8207 72.0001 81.3144 72.2873L82.4223 70.3831ZM90.4084 75.0296L82.4223 70.3831L81.3144 72.2873L89.3005 76.9338L90.4084 75.0296ZM90.4008 75.0277C90.4144 75.0334 90.4224 75.0375 90.4232 75.0379C90.4237 75.0382 90.4199 75.0363 90.4084 75.0296L89.3005 76.9338C89.3556 76.9659 89.4458 77.0167 89.5561 77.0625L90.4008 75.0277ZM91.574 74.7651C91.331 75.0486 91.0974 75.1089 90.9049 75.1171C90.6734 75.1269 90.4684 75.0558 90.4007 75.0277L89.5562 77.0625C89.9224 77.2145 91.8054 77.8803 93.2467 76.1989L91.574 74.7651ZM91.856 73.6698C91.8902 73.7941 91.9131 73.9561 91.8864 74.1328C91.8614 74.2984 91.7878 74.5156 91.574 74.7651L93.2467 76.1989C94.2579 75.0191 94.1726 73.7846 93.9801 73.0852L91.856 73.6698ZM91.7506 73.5841C91.8121 73.6333 91.8447 73.6686 91.8599 73.6883C91.8734 73.7057 91.864 73.699 91.856 73.6698L93.9801 73.0852C93.8177 72.4951 93.4245 72.1019 93.1268 71.8638L91.7506 73.5841ZM86.3379 69.254L91.7506 73.5841L93.1269 71.8638L87.7142 67.5336L86.3379 69.254ZM86.4588 63.9699C84.7038 65.2589 84.6207 67.8802 86.3379 69.254L87.7142 67.5336C87.1455 67.0787 87.1585 66.1894 87.7629 65.7455L86.4588 63.9699ZM90.3555 61.8925C90.1141 61.4096 90.3323 60.9959 90.3385 60.9829C90.3627 60.9324 90.385 60.8981 90.395 60.8833C90.4009 60.8747 90.4055 60.8684 90.4083 60.8646C90.4111 60.8608 90.4129 60.8587 90.4131 60.8583C90.4134 60.858 90.41 60.8621 90.4018 60.8712C90.3938 60.8801 90.3827 60.892 90.3679 60.9071C90.3381 60.9377 90.2983 60.9763 90.2476 61.0234C90.0388 61.2173 89.7146 61.4886 89.3055 61.8144C88.4938 62.4607 87.4237 63.2613 86.4588 63.9699L87.7629 65.7455C88.7331 65.033 89.8314 64.2118 90.6777 63.5379C91.0976 63.2037 91.4748 62.8904 91.7467 62.6379C91.8776 62.5163 92.016 62.3797 92.1252 62.2449C92.1756 62.1826 92.259 62.0735 92.3258 61.9338C92.3564 61.8699 92.5809 61.4169 92.326 60.9072L90.3555 61.8925ZM84.6032 63.7182C85.8188 63.4448 87.518 63.0724 88.925 62.8011C89.6318 62.6648 90.2456 62.5578 90.6819 62.5005C90.9056 62.4712 91.049 62.4595 91.1236 62.4582C91.1674 62.4574 91.1403 62.4613 91.077 62.4502C91.0468 62.4449 90.9578 62.4278 90.8477 62.3761C90.749 62.3297 90.5074 62.1963 90.3555 61.8925L92.326 60.9072C92.1661 60.5873 91.9081 60.4402 91.785 60.3823C91.6505 60.3191 91.5291 60.2928 91.4589 60.2804C91.3155 60.2552 91.178 60.2537 91.084 60.2554C90.8831 60.259 90.6414 60.2839 90.3951 60.3162C89.8914 60.3823 89.2252 60.4996 88.5078 60.6379C87.0664 60.9158 85.3404 61.2942 84.1197 61.5689L84.6032 63.7182ZM81.0057 62.2153C81.7635 63.4165 83.1999 64.0339 84.6032 63.7182L84.1197 61.5689C83.6435 61.676 83.1391 61.4679 82.8689 61.0398L81.0057 62.2153ZM72.5801 51.3265C75.9799 54.5425 79.4366 59.7283 81.0057 62.2153L82.8689 61.0398C81.2993 58.5519 77.7155 53.1516 74.094 49.726L72.5801 51.3265ZM64.1891 44.9142C66.7897 46.6601 70.2623 49.1342 72.5801 51.3265L74.094 49.726C71.6327 47.3979 68.0275 44.8376 65.4171 43.0851L64.1891 44.9142ZM63.5467 38.4644C62.839 39.3931 62.5136 40.6311 62.5708 41.7769C62.6279 42.9187 63.0834 44.1719 64.1891 44.9142L65.4171 43.0851C65.0708 42.8526 64.8062 42.3674 64.7712 41.6669C64.7364 40.9704 64.9468 40.2619 65.2991 39.7996L63.5467 38.4644ZM65.6481 28.9125C66.2304 33.6873 64.901 36.6869 63.5467 38.4644L65.2991 39.7996C66.9977 37.5702 68.4876 33.997 67.835 28.6458L65.6481 28.9125ZM58.0619 16.8282C58.2595 16.9847 59.9752 18.3679 61.7382 20.5567C63.5115 22.7584 65.2537 25.6778 65.6481 28.9125L67.835 28.6458C67.3694 24.8281 65.3468 21.5249 63.4539 19.1748C61.5506 16.8117 59.6983 15.3139 59.4296 15.1011L58.0619 16.8282ZM58.0583 16.8255C58.061 16.8274 58.0609 16.8274 58.0596 16.8264C58.0584 16.8255 58.0587 16.8257 58.0619 16.8282L59.4297 15.1011C59.396 15.0745 59.3653 15.0514 59.3289 15.0257L58.0583 16.8255ZM41.0728 11.8769C50.8867 11.8769 57.6541 16.5402 58.0583 16.8255L59.3288 15.0257C58.7707 14.6317 51.5504 9.67384 41.0728 9.67384V11.8769ZM27.0515 51.0233C26.2444 42.8024 31.7634 37.0031 35.356 34.1553L33.9875 32.4288C30.243 35.397 23.9373 41.8512 24.859 51.2385L27.0515 51.0233ZM39.0131 69.0263C39.0497 69.0454 36.3434 67.6351 33.4835 64.6581C30.629 61.6865 27.6574 57.1941 27.0515 51.0233L24.859 51.2385C26.1922 64.8167 37.9098 70.9355 37.9931 70.9791L39.0131 69.0263ZM39.0109 69.0252L39.0107 69.0251L37.9955 70.9803L37.9957 70.9804L39.0109 69.0252ZM39.0232 69.0317L39.0231 69.0316L37.9835 70.974L37.9836 70.9741L39.0232 69.0317ZM58.2963 71.7636C47.5463 73.4825 38.9931 69.0159 39.0139 69.0267L37.993 70.979C38.1071 71.0387 47.1849 75.7714 58.6442 73.9391L58.2963 71.7636ZM75.2566 67.3735C71.4947 68.6145 64.4302 70.7828 58.2963 71.7636L58.6442 73.9391C64.9612 72.929 72.1647 70.7133 75.9468 69.4657L75.2566 67.3735ZM75.4118 66.5026C75.7366 66.7831 75.6171 67.2546 75.2566 67.3735L75.9468 69.4657C77.98 68.795 78.4346 66.202 76.8516 64.8351L75.4118 66.5026ZM75.1435 66.3723C75.2457 66.3922 75.3335 66.435 75.4118 66.5026L76.8516 64.8351C76.4825 64.5164 76.044 64.3035 75.5661 64.2101L75.1435 66.3723ZM50.7408 58.352C61.2754 63.4973 72.7758 65.9095 75.1435 66.3723L75.5661 64.2101C73.2496 63.7573 61.9776 61.3885 51.7077 56.3724L50.7408 58.352ZM35.6057 42.0589C35.8085 45.2144 37.8696 52.3678 50.7598 58.361L51.6886 56.3633C39.4243 50.6611 37.9483 44.1591 37.8042 41.9176L35.6057 42.0589ZM37.4226 39.3293C36.3846 39.741 35.5215 40.7493 35.6057 42.0589L37.8042 41.9176C37.7934 41.7491 37.896 41.5116 38.2348 41.3773L37.4226 39.3293ZM40.9861 38.132C39.8054 38.4183 38.3695 38.9538 37.4226 39.3293L38.2348 41.3773C39.1706 41.0061 40.4848 40.5205 41.5054 40.273L40.9861 38.132ZM46.0911 37.4005C45.581 37.445 42.76 37.7018 40.9861 38.132L41.5054 40.273C43.0892 39.8889 45.7409 39.6425 46.2825 39.5953L46.0911 37.4005ZM46.335 37.3878C46.26 37.3895 46.1822 37.3926 46.0911 37.4005L46.2825 39.5953C46.3114 39.5928 46.3388 39.5914 46.3842 39.5904L46.335 37.3878ZM55.4272 29.663C55.5548 31.5466 55.1083 32.9055 54.4139 33.9118C53.7082 34.9346 52.6915 35.6712 51.5671 36.1988C49.2923 37.2662 46.7952 37.3775 46.335 37.3878L46.3842 39.5904C46.9313 39.5781 49.8034 39.46 52.503 38.1932C53.8659 37.5537 55.2377 36.597 56.2272 35.163C57.228 33.7126 57.7835 31.8513 57.6252 29.5141L55.4272 29.663ZM46.0181 23.0315C46.3819 23.0191 48.7095 22.9833 50.9701 23.8445C52.0893 24.2708 53.1428 24.8987 53.9406 25.812C54.7258 26.7109 55.3104 27.9386 55.4272 29.663L57.6252 29.5141C57.477 27.3265 56.7134 25.6375 55.5998 24.3626C54.4988 23.1022 53.1028 22.2994 51.7544 21.7857C49.0798 20.7669 46.3996 20.8141 45.9431 20.8297L46.0181 23.0315ZM45.9846 23.0344C46.0001 23.0326 46.0059 23.0322 46.0081 23.032C46.0093 23.0319 46.0116 23.0317 46.0181 23.0315L45.9432 20.8297C45.8634 20.8324 45.8025 20.838 45.7412 20.8448L45.9846 23.0344ZM35.7342 23.7407C36.2939 23.7991 37.187 23.778 38.146 23.7278C39.1318 23.6761 40.2707 23.5884 41.3667 23.4928C43.5599 23.3015 45.6118 23.0758 45.9846 23.0344L45.7411 20.8448C45.3745 20.8855 43.3427 21.109 41.1752 21.2981C40.0908 21.3927 38.9802 21.478 38.0307 21.5277C37.0545 21.5788 36.3265 21.5875 35.9629 21.5495L35.7342 23.7407ZM32.9782 23.2462C33.9345 23.4649 34.9128 23.6549 35.7342 23.7407L35.9629 21.5495C35.2723 21.4774 34.3944 21.3101 33.4694 21.0985L32.9782 23.2462ZM31.7787 24.5622C31.5384 24.214 31.586 23.888 31.8008 23.6207C32.0358 23.3283 32.4709 23.1302 32.9782 23.2462L33.4694 21.0985C32.1137 20.7885 30.8302 21.3117 30.0837 22.2405C29.3171 23.1943 29.1203 24.5891 29.9656 25.8137L31.7787 24.5622ZM32.6197 25.6665C32.3394 25.3399 32.0565 24.9646 31.7787 24.5622L29.9656 25.8137C30.2746 26.2613 30.6046 26.7013 30.9477 27.1012L32.6197 25.6665ZM35.5173 28.4133C34.4433 27.5051 33.3263 26.49 32.6197 25.6665L30.9477 27.1012C31.7761 28.0666 33.0077 29.1763 34.0946 30.0955L35.5173 28.4133ZM35.356 34.1553C37.1062 32.7679 37.3044 29.9247 35.5173 28.4133L34.0946 30.0955C34.7384 30.6399 34.7322 31.8385 33.9875 32.4288L35.356 34.1553ZM37.7486 18.1602C37.7486 19.2086 36.8986 20.0586 35.8501 20.0586V22.2617C38.1153 22.2617 39.9516 20.4254 39.9516 18.1602H37.7486ZM35.8501 16.2617C36.8986 16.2617 37.7486 17.1117 37.7486 18.1602H39.9516C39.9516 15.8949 38.1153 14.0586 35.8501 14.0586V16.2617ZM33.9516 18.1602C33.9516 17.1117 34.8016 16.2617 35.8501 16.2617V14.0586C33.5849 14.0586 31.7486 15.8949 31.7486 18.1602H33.9516ZM35.8501 20.0586C34.8016 20.0586 33.9516 19.2086 33.9516 18.1602H31.7486C31.7486 20.4254 33.5849 22.2617 35.8501 22.2617V20.0586ZM37.9962 70.9807L37.9965 70.9808L39.0106 69.025L39.0104 69.0249L37.9962 70.9807Z" fill="#FFA600"/>
</svg>
