<svg width="142" height="142" viewBox="0 0 142 142" fill="none" xmlns="http://www.w3.org/2000/svg">
<g clip-path="url(#clip0_798_322)">
<rect width="142" height="142" rx="33.2812" fill="url(#paint0_linear_798_322)"/>
<g filter="url(#filter0_d_798_322)">
<path fill-rule="evenodd" clip-rule="evenodd" d="M63.1876 26.1914C53.6007 26.1914 48.2474 29.9116 46.4186 31.4776C45.935 31.8917 45.3322 32.1633 44.6957 32.1752C42.8495 32.2099 38.8341 32.3114 36.0211 32.5714C33.7502 32.7814 33.4764 35.9652 35.6158 36.755C38.8842 37.9616 42.3256 39.3618 44.4592 40.5979C47.427 42.3174 49.8147 44.8494 51.2827 46.6507C52.1765 47.7475 51.7165 49.3873 50.562 50.2053C47.8777 52.1073 43.4942 56.244 40.7823 64.1844C40.7641 64.2377 40.7437 64.2916 40.7221 64.3436C40.4048 65.1097 37.8733 71.3669 37.8733 75.9967C37.8733 86.7984 36.7489 91.0407 36.646 91.4061C36.6405 91.4256 36.6355 91.4414 36.6291 91.4606C36.147 92.9103 35.223 94.6445 34.3191 96.1605C33.3716 97.7495 34.4829 99.8703 36.3329 99.8703H46.4349C47.3562 99.8703 48.1862 99.3137 48.5359 98.4613L50.0684 94.726C50.6528 93.3014 52.4874 92.8223 53.7754 93.6662C56.89 95.7069 62.68 98.8844 69.9792 100.076C73.6509 100.676 77.2551 100.699 80.4358 100.462C82.9115 100.278 84.0162 103.036 81.7005 103.931C78.6857 105.096 75.0304 106.133 70.8025 106.662C59.2685 108.104 50.5752 105.442 48.5917 104.758C48.3074 104.66 48.0089 104.607 47.7082 104.614L38.2503 104.832C35.9634 104.884 35.2531 107.772 37.3018 108.79C40.6939 110.475 44.7549 112.293 48.1637 113.248C55.5654 115.32 60.0664 115.67 67.7154 115.512C75.3913 115.352 79.9207 115.002 87.0612 112.219C88.2961 111.737 95.2935 108.683 99.6154 105.015C102.346 102.699 105.381 98.8386 107.03 96.6266C107.737 95.6774 109.048 95.3897 110.071 95.9851L119.517 101.481C119.558 101.505 119.599 101.527 119.644 101.546C119.96 101.679 121.37 102.171 122.46 100.899C123.297 99.9232 123.189 98.9471 123.032 98.4191C122.95 98.1447 122.757 97.9263 122.533 97.7475L115.961 92.4897C114.783 91.5472 114.833 89.7374 116.05 88.8463C118.326 87.1807 121.354 84.8987 121.225 84.6406C121.073 84.3359 115.734 85.4969 112.97 86.1209C112.002 86.3395 111.004 85.9154 110.476 85.0745C108.722 82.2808 104.574 75.9983 100.439 72.0864C97.5501 69.3541 93.2067 66.2966 90.1687 64.272C88.6685 63.2723 88.685 60.7138 89.834 59.3247C91.7091 57.0581 93.5787 53.1681 92.8238 46.9779C91.8292 38.8224 84.1059 32.5891 83.5896 32.1807C83.5706 32.1657 83.5544 32.1535 83.5346 32.1395C83.0026 31.7635 74.9206 26.1914 63.1876 26.1914ZM45.004 72.4286C43.9712 61.9867 51.2456 54.8028 55.482 51.5527C56.7891 50.5499 56.898 48.4576 55.6299 47.406C54.2893 46.2944 52.7613 44.9436 51.7913 43.8214C51.3017 43.255 50.8231 42.5951 50.3782 41.9187C49.2952 40.2722 50.9122 38.3441 52.8286 38.8036C54.1355 39.1169 55.4732 39.3905 56.5248 39.4995C58.6834 39.7231 67.3909 38.7718 68.1961 38.6829C68.2402 38.678 68.271 38.6754 68.3153 38.6738C69.2134 38.6423 79.9852 38.4539 80.6043 47.5259C81.2728 57.3234 69.8476 57.7927 68.7516 57.8152C68.69 57.8164 68.6369 57.8188 68.5755 57.8241C67.9929 57.8743 64.7777 58.1658 62.81 58.6395C61.4707 58.962 59.7824 59.5919 58.6861 60.027C57.9755 60.309 57.4766 60.9447 57.5136 61.7083C57.6592 64.7167 59.5403 72.7597 74.4301 79.6318C86.5533 85.5098 99.8241 88.2728 102.537 88.7989C102.87 88.8636 103.173 89.0097 103.431 89.2308C104.54 90.1813 104.208 91.9587 102.82 92.4132C98.4286 93.8515 90.1191 96.3861 82.8681 97.537C69.9327 99.5903 59.6645 94.2691 59.6165 94.2442L59.6162 94.2441C59.568 94.2191 46.4873 87.4248 45.004 72.4286ZM54.1195 37.7703C55.576 37.7703 56.7566 36.5896 56.7566 35.1332C56.7566 33.6768 55.576 32.4961 54.1195 32.4961C52.6631 32.4961 51.4824 33.6768 51.4824 35.1332C51.4824 36.5896 52.6631 37.7703 54.1195 37.7703Z" fill="black"/>
<path d="M46.4186 31.4776L47.1571 32.3401H47.1571L46.4186 31.4776ZM44.6957 32.1752L44.717 33.3105L44.6957 32.1752ZM36.0211 32.5714L35.9166 31.4408L36.0211 32.5714ZM35.6158 36.755L36.009 35.6898L36.009 35.6898L35.6158 36.755ZM44.4592 40.5979L43.8899 41.5804L44.4592 40.5979ZM51.2827 46.6507L50.4025 47.368V47.368L51.2827 46.6507ZM50.562 50.2053L49.9055 49.2788L50.562 50.2053ZM40.7823 64.1844L41.8568 64.5514L41.8568 64.5514L40.7823 64.1844ZM40.7221 64.3436L39.6731 63.9091L39.6731 63.9091L40.7221 64.3436ZM36.646 91.4061L35.553 91.0985L35.553 91.0985L36.646 91.4061ZM36.6291 91.4606L35.5517 91.1022L35.5517 91.1023L36.6291 91.4606ZM34.3191 96.1605L35.2943 96.742H35.2943L34.3191 96.1605ZM48.5359 98.4613L49.5864 98.8923H49.5864L48.5359 98.4613ZM50.0684 94.726L51.1189 95.157L50.0684 94.726ZM53.7754 93.6662L54.3976 92.7165L53.7754 93.6662ZM69.9792 100.076L69.7963 101.197L69.9792 100.076ZM80.4358 100.462L80.3513 99.3298L80.4358 100.462ZM81.7005 103.931L81.2912 102.872L81.7005 103.931ZM70.8025 106.662L70.6616 105.535L70.8025 106.662ZM48.5917 104.758L48.9619 103.685L48.9619 103.685L48.5917 104.758ZM47.7082 104.614L47.7343 105.75H47.7343L47.7082 104.614ZM38.2503 104.832L38.2242 103.697L38.2503 104.832ZM37.3018 108.79L36.7965 109.807H36.7965L37.3018 108.79ZM48.1637 113.248L48.4699 112.154H48.4699L48.1637 113.248ZM67.7154 115.512L67.6918 114.376L67.7154 115.512ZM87.0612 112.219L87.4736 113.277L87.0612 112.219ZM99.6154 105.015L98.8808 104.15L99.6154 105.015ZM107.03 96.6266L106.119 95.9481L107.03 96.6266ZM110.071 95.9851L110.642 95.0036L110.071 95.9851ZM119.517 101.481L118.946 102.462L118.946 102.462L119.517 101.481ZM119.644 101.546L119.203 102.592L119.203 102.592L119.644 101.546ZM122.46 100.899L121.598 100.16V100.16L122.46 100.899ZM123.032 98.4191L121.943 98.7422L123.032 98.4191ZM122.533 97.7475L123.243 96.8608L123.243 96.8608L122.533 97.7475ZM115.961 92.4897L116.671 91.6031L115.961 92.4897ZM116.05 88.8463L116.721 89.7626L116.721 89.7626L116.05 88.8463ZM121.225 84.6406L120.21 85.1484V85.1484L121.225 84.6406ZM112.97 86.1209L113.22 87.2285H113.22L112.97 86.1209ZM110.476 85.0745L111.438 84.4706L110.476 85.0745ZM100.439 72.0864L99.6584 72.9113L100.439 72.0864ZM90.1687 64.272L89.539 65.2169L89.539 65.2169L90.1687 64.272ZM89.834 59.3247L90.709 60.0485V60.0485L89.834 59.3247ZM92.8238 46.9779L91.6967 47.1154L92.8238 46.9779ZM83.5896 32.1807L82.8851 33.0712L82.8851 33.0713L83.5896 32.1807ZM83.5346 32.1395L84.1899 31.2123L84.1899 31.2123L83.5346 32.1395ZM55.482 51.5527L56.1732 52.4536L55.482 51.5527ZM45.004 72.4286L43.874 72.5404L45.004 72.4286ZM55.6299 47.406L56.3547 46.5319L55.6299 47.406ZM51.7913 43.8214L52.6503 43.0789L51.7913 43.8214ZM50.3782 41.9187L49.4295 42.5427H49.4295L50.3782 41.9187ZM52.8286 38.8036L53.0933 37.6994L52.8286 38.8036ZM56.5248 39.4995L56.4078 40.6289L56.5248 39.4995ZM68.1961 38.6829L68.3208 39.8115H68.3208L68.1961 38.6829ZM68.3153 38.6738L68.2755 37.539H68.2755L68.3153 38.6738ZM80.6043 47.5259L79.4714 47.6033L80.6043 47.5259ZM68.7516 57.8152L68.7283 56.6799L68.7283 56.6799L68.7516 57.8152ZM68.5755 57.8241L68.673 58.9554H68.6731L68.5755 57.8241ZM62.81 58.6395L62.5442 57.5356L62.81 58.6395ZM58.6861 60.027L59.105 61.0824H59.105L58.6861 60.027ZM57.5136 61.7083L58.6477 61.6535L57.5136 61.7083ZM74.4301 79.6318L74.9254 78.6101L74.9157 78.6054L74.9059 78.6009L74.4301 79.6318ZM102.537 88.7989L102.753 87.6842L102.537 88.7989ZM103.431 89.2308L104.17 88.3687L104.17 88.3687L103.431 89.2308ZM102.82 92.4132L103.174 93.4923L102.82 92.4132ZM82.8681 97.537L83.0462 98.6585L82.8681 97.537ZM59.6165 94.2442L60.1398 93.2365L60.1321 93.2325L60.1243 93.2286L59.6165 94.2442ZM59.6162 94.2441L59.0936 95.2522L59.101 95.256L59.1084 95.2597L59.6162 94.2441ZM47.1571 32.3401C48.8218 30.9146 53.9218 27.3269 63.1876 27.3269V25.0559C53.2796 25.0559 47.6729 28.9086 45.68 30.6151L47.1571 32.3401ZM44.717 33.3105C45.6653 33.2927 46.5134 32.8913 47.1571 32.3401L45.68 30.6151C45.3566 30.8921 44.9992 31.0338 44.6744 31.0399L44.717 33.3105ZM36.1256 33.7021C38.8918 33.4463 42.8685 33.3452 44.717 33.3105L44.6744 31.0399C42.8305 31.0745 38.7763 31.1764 35.9166 31.4408L36.1256 33.7021ZM36.009 35.6898C35.4854 35.4965 35.251 35.0302 35.2953 34.55C35.3381 34.0853 35.6187 33.7489 36.1256 33.7021L35.9166 31.4408C34.1527 31.6038 33.1609 32.9644 33.0339 34.3415C32.9084 35.7031 33.6068 37.2237 35.2226 37.8202L36.009 35.6898ZM45.0284 39.6154C42.8013 38.3251 39.2763 36.8959 36.009 35.6898L35.2226 37.8202C38.492 39.0272 41.85 40.3985 43.8899 41.5804L45.0284 39.6154ZM52.1629 45.9333C50.6562 44.0846 48.1668 41.4337 45.0284 39.6154L43.8899 41.5804C46.6873 43.2011 48.9731 45.6141 50.4025 47.368L52.1629 45.9333ZM51.2185 51.1318C52.7432 50.0514 53.5902 47.6848 52.1629 45.9333L50.4025 47.368C50.7629 47.8102 50.6898 48.7231 49.9055 49.2788L51.2185 51.1318ZM41.8568 64.5514C44.4808 56.8685 48.6995 52.9166 51.2185 51.1318L49.9055 49.2788C47.0558 51.2981 42.5076 55.6195 39.7078 63.8174L41.8568 64.5514ZM41.7712 64.7781C41.8014 64.7051 41.8304 64.6287 41.8568 64.5514L39.7078 63.8174C39.6978 63.8467 39.6859 63.878 39.6731 63.9091L41.7712 64.7781ZM39.0088 75.9967C39.0088 73.8514 39.6023 71.2579 40.2662 69.0479C40.9238 66.859 41.6206 65.1415 41.7712 64.7781L39.6731 63.9091C39.5063 64.3118 38.7788 66.106 38.0913 68.3946C37.4101 70.6622 36.7379 73.5122 36.7379 75.9967H39.0088ZM37.739 91.7137C37.877 91.2234 39.0088 86.873 39.0088 75.9967H36.7379C36.7379 86.7239 35.6207 90.858 35.553 91.0985L37.739 91.7137ZM37.7066 91.8189C37.716 91.7904 37.727 91.7564 37.739 91.7137L35.553 91.0985C35.5532 91.0977 35.5536 91.0963 35.554 91.0952C35.5541 91.0947 35.5537 91.0962 35.5517 91.1022L37.7066 91.8189ZM35.2943 96.742C36.2071 95.2111 37.184 93.3902 37.7066 91.8189L35.5517 91.1023C35.11 92.4303 34.2388 94.0779 33.3438 95.579L35.2943 96.742ZM36.3329 98.7348C35.4388 98.7348 34.7594 97.6393 35.2943 96.742L33.3438 95.579C31.9839 97.8598 33.5269 101.006 36.3329 101.006V98.7348ZM46.4349 98.7348H36.3329V101.006H46.4349V98.7348ZM47.4854 98.0303C47.3106 98.4565 46.8956 98.7348 46.4349 98.7348V101.006C47.8169 101.006 49.0619 100.171 49.5864 98.8923L47.4854 98.0303ZM49.0179 94.295L47.4854 98.0303L49.5864 98.8923L51.1189 95.157L49.0179 94.295ZM54.3976 92.7165C52.5731 91.521 49.8997 92.1455 49.0179 94.295L51.1189 95.157C51.4059 94.4573 52.4018 94.1237 53.1531 94.616L54.3976 92.7165ZM70.1622 98.9555C63.0752 97.7984 57.4362 94.7074 54.3976 92.7165L53.1531 94.616C56.3437 96.7065 62.2847 99.9704 69.7963 101.197L70.1622 98.9555ZM80.3513 99.3298C77.2364 99.562 73.7249 99.5371 70.1622 98.9555L69.7963 101.197C73.5769 101.814 77.2738 101.836 80.5202 101.594L80.3513 99.3298ZM82.1099 104.99C82.9032 104.683 83.5195 104.168 83.8514 103.477C84.1826 102.788 84.1741 102.039 83.9262 101.388C83.4311 100.087 82.0311 99.2046 80.3513 99.3298L80.5202 101.594C81.3162 101.535 81.7064 101.94 81.8037 102.196C81.852 102.322 81.8402 102.419 81.8046 102.494C81.7697 102.566 81.6558 102.731 81.2912 102.872L82.1099 104.99ZM70.9433 107.789C75.2731 107.247 79.0186 106.185 82.1099 104.99L81.2912 102.872C78.3529 104.007 74.7876 105.019 70.6616 105.535L70.9433 107.789ZM48.2215 105.832C50.3004 106.549 59.1773 109.259 70.9433 107.789L70.6616 105.535C59.3598 106.948 50.85 104.336 48.9619 103.685L48.2215 105.832ZM47.7343 105.75C47.8848 105.746 48.0491 105.772 48.2215 105.832L48.9619 103.685C48.5657 103.548 48.133 103.469 47.6821 103.479L47.7343 105.75ZM38.2764 105.967L47.7343 105.75L47.6821 103.479L38.2242 103.697L38.2764 105.967ZM37.807 107.773C37.2829 107.513 37.1644 107.085 37.2537 106.716C37.3454 106.338 37.67 105.981 38.2764 105.967L38.2242 103.697C36.5436 103.735 35.3697 104.848 35.0466 106.181C34.7213 107.524 35.272 109.049 36.7965 109.807L37.807 107.773ZM48.4699 112.154C45.1677 111.23 41.1845 109.451 37.807 107.773L36.7965 109.807C40.2032 111.499 44.3422 113.357 47.8575 114.341L48.4699 112.154ZM67.6918 114.376C60.1252 114.533 55.7396 114.19 48.4699 112.154L47.8575 114.341C55.3913 116.451 60.0076 116.807 67.7389 116.647L67.6918 114.376ZM86.6489 111.161C79.6884 113.874 75.3121 114.218 67.6918 114.376L67.7389 116.647C75.4705 116.486 80.153 116.13 87.4736 113.277L86.6489 111.161ZM98.8808 104.15C94.7082 107.69 87.8569 110.69 86.6489 111.161L87.4736 113.277C88.7352 112.785 95.8788 109.675 100.35 105.881L98.8808 104.15ZM106.119 95.9481C104.47 98.1613 101.502 101.926 98.8808 104.15L100.35 105.881C103.19 103.472 106.293 99.5158 107.94 97.3051L106.119 95.9481ZM110.642 95.0036C109.105 94.1092 107.161 94.5501 106.119 95.9481L107.94 97.3051C108.313 96.8047 108.991 96.6703 109.5 96.9665L110.642 95.0036ZM120.088 100.499L110.642 95.0036L109.5 96.9665L118.946 102.462L120.088 100.499ZM120.084 100.499C120.096 100.504 120.103 100.508 120.104 100.508C120.104 100.509 120.1 100.506 120.088 100.499L118.946 102.462C119.002 102.495 119.093 102.546 119.203 102.592L120.084 100.499ZM121.598 100.16C121.287 100.523 120.977 100.605 120.72 100.615C120.422 100.625 120.164 100.533 120.084 100.499L119.203 102.592C119.594 102.757 121.706 103.523 123.322 101.638L121.598 100.16ZM121.943 98.7422C122.031 99.0362 122.104 99.5701 121.598 100.16L123.322 101.638C124.49 100.276 124.347 98.8579 124.12 98.0959L121.943 98.7422ZM121.824 98.6341C121.887 98.6843 121.922 98.7216 121.939 98.7443C121.955 98.7649 121.95 98.7637 121.943 98.7422L124.12 98.0959C123.945 97.5068 123.553 97.1092 123.243 96.8608L121.824 98.6341ZM115.252 93.3764L121.824 98.6341L123.243 96.8608L116.671 91.6031L115.252 93.3764ZM115.38 87.9301C113.567 89.2569 113.482 91.9605 115.252 93.3764L116.671 91.6031C116.084 91.1339 116.099 90.218 116.721 89.7626L115.38 87.9301ZM120.21 85.1484C120.073 84.8745 120.085 84.6213 120.108 84.4818C120.132 84.3439 120.177 84.2464 120.198 84.2045C120.239 84.1215 120.276 84.0824 120.259 84.1025C120.235 84.132 120.164 84.2071 120.024 84.3355C119.754 84.5829 119.343 84.9237 118.835 85.3251C117.827 86.1224 116.515 87.0991 115.38 87.9301L116.721 89.7626C117.862 88.9279 119.201 87.9308 120.244 87.1062C120.762 86.6966 121.226 86.3144 121.559 86.0093C121.72 85.8615 121.882 85.7029 122.007 85.5517C122.066 85.4815 122.156 85.3653 122.229 85.2197C122.266 85.1464 122.321 85.0213 122.348 84.8595C122.375 84.6961 122.386 84.4229 122.241 84.1328L120.21 85.1484ZM113.22 87.2285C114.6 86.9171 116.612 86.4739 118.294 86.1471C119.138 85.9831 119.88 85.8522 120.411 85.781C120.682 85.7447 120.864 85.7287 120.966 85.7263C121.024 85.725 121.007 85.7295 120.95 85.72C120.923 85.7155 120.834 85.6996 120.723 85.6484C120.625 85.6034 120.369 85.4674 120.21 85.1484L122.241 84.1328C122.072 83.7948 121.797 83.6426 121.669 83.5841C121.528 83.5195 121.401 83.4929 121.326 83.4803C121.172 83.4546 121.022 83.4535 120.914 83.456C120.684 83.4612 120.403 83.4908 120.109 83.5302C119.51 83.6105 118.715 83.7518 117.861 83.9179C116.144 84.2514 114.105 84.7007 112.72 85.0133L113.22 87.2285ZM109.514 85.6784C110.294 86.92 111.774 87.555 113.22 87.2285L112.72 85.0133C112.23 85.124 111.714 84.9108 111.438 84.4706L109.514 85.6784ZM99.6584 72.9113C103.678 76.7138 107.759 82.884 109.514 85.6784L111.438 84.4706C109.684 81.6777 105.47 75.2827 101.219 71.2615L99.6584 72.9113ZM89.539 65.2169C92.5735 67.2391 96.8459 70.251 99.6584 72.9113L101.219 71.2615C98.2542 68.4572 93.8399 65.354 90.7983 63.3271L89.539 65.2169ZM88.9591 58.6009C88.1817 59.5408 87.8235 60.8136 87.8734 61.9924C87.9233 63.1694 88.3971 64.4559 89.539 65.2169L90.7983 63.3271C90.4401 63.0884 90.172 62.5957 90.1424 61.8963C90.1128 61.1986 90.3373 60.4977 90.709 60.0485L88.9591 58.6009ZM91.6967 47.1154C92.4127 52.9865 90.6416 56.567 88.9591 58.601L90.709 60.0485C92.7765 57.5491 94.7448 53.3498 93.9509 46.8405L91.6967 47.1154ZM82.8851 33.0713C83.1066 33.2465 85.0961 34.8479 87.1434 37.3869C89.2015 39.9394 91.2361 43.3385 91.6967 47.1154L93.9509 46.8405C93.417 42.4618 91.0925 38.6666 88.9113 35.9614C86.7192 33.2429 84.5889 31.5234 84.2941 31.2902L82.8851 33.0713ZM82.8792 33.0668C82.8815 33.0684 82.882 33.0688 82.8817 33.0685C82.8814 33.0683 82.8822 33.0689 82.8851 33.0712L84.2942 31.2903C84.2598 31.2631 84.2272 31.2386 84.1899 31.2123L82.8792 33.0668ZM63.1876 27.3269C74.578 27.3269 82.4264 32.7468 82.8792 33.0668L84.1899 31.2123C83.5787 30.7803 75.2631 25.0559 63.1876 25.0559V27.3269ZM54.7909 50.6518C50.4851 53.9551 42.7799 61.4786 43.874 72.5404L46.134 72.3168C45.1625 62.4949 52.0061 55.6505 56.1732 52.4536L54.7909 50.6518ZM54.9051 48.2801C55.571 48.8323 55.5627 50.0597 54.7909 50.6518L56.1732 52.4536C58.0155 51.0402 58.225 48.0829 56.3547 46.5319L54.9051 48.2801ZM50.9323 44.564C51.9687 45.763 53.5602 47.1648 54.9051 48.2801L56.3547 46.5319C55.0185 45.4239 53.5539 44.1242 52.6503 43.0789L50.9323 44.564ZM49.4295 42.5427C49.8913 43.2448 50.3999 43.9481 50.9323 44.564L52.6503 43.0789C52.2035 42.5619 51.7548 41.9454 51.3268 41.2947L49.4295 42.5427ZM53.0933 37.6994C51.6929 37.3636 50.368 37.8998 49.5948 38.8586C48.8048 39.8381 48.5929 41.2707 49.4295 42.5427L51.3268 41.2947C51.0805 40.9202 51.1356 40.5655 51.3625 40.2842C51.6061 39.9821 52.0479 39.784 52.5638 39.9078L53.0933 37.6994ZM56.6419 38.37C55.6666 38.269 54.3874 38.0097 53.0933 37.6994L52.5638 39.9078C53.8835 40.2242 55.2798 40.512 56.4078 40.6289L56.6419 38.37ZM68.0714 37.5543C67.672 37.5984 65.304 37.8573 62.7698 38.0772C61.5021 38.1872 60.2006 38.2867 59.0867 38.3448C57.9452 38.4044 57.081 38.4155 56.6419 38.37L56.4078 40.6289C57.048 40.6952 58.0816 40.6713 59.2051 40.6127C60.3561 40.5526 61.6865 40.4506 62.9661 40.3396C65.5266 40.1175 67.915 39.8563 68.3208 39.8115L68.0714 37.5543ZM68.2755 37.539C68.1952 37.5418 68.1349 37.5472 68.0714 37.5543L68.3208 39.8115C68.3367 39.8097 68.3422 39.8093 68.3441 39.8091C68.3449 39.8091 68.3474 39.8088 68.3552 39.8086L68.2755 37.539ZM81.7371 47.4486C81.5659 44.939 80.6822 43.0106 79.4002 41.5594C78.1318 40.1235 76.5222 39.2086 74.9638 38.6231C71.8692 37.4605 68.7716 37.5216 68.2755 37.539L68.3552 39.8086C68.7571 39.7945 71.4944 39.7456 74.1651 40.749C75.4892 41.2464 76.7448 41.9835 77.6983 43.0629C78.6382 44.1268 79.3332 45.5769 79.4714 47.6033L81.7371 47.4486ZM68.7749 58.9504C69.3668 58.9383 72.6887 58.8123 75.816 57.3669C77.3929 56.6381 78.9768 55.5483 80.1191 53.9144C81.2738 52.2627 81.9204 50.135 81.7371 47.4486L79.4714 47.6033C79.6224 49.8156 79.0916 51.4206 78.2579 52.6132C77.4117 53.8235 76.1962 54.6894 74.8633 55.3055C72.1712 56.5497 69.2325 56.6696 68.7283 56.6799L68.7749 58.9504ZM68.6731 58.9554C68.7039 58.9527 68.7314 58.9513 68.7749 58.9504L68.7283 56.6799C68.6486 56.6816 68.5699 56.6849 68.4779 56.6928L68.6731 58.9554ZM63.0758 59.7435C64.9459 59.2933 68.074 59.007 68.673 58.9554L68.4779 56.6928C67.9117 56.7416 64.6095 57.0384 62.5442 57.5356L63.0758 59.7435ZM59.105 61.0824C60.1969 60.6491 61.8209 60.0456 63.0758 59.7435L62.5442 57.5356C61.1205 57.8784 59.3679 58.5348 58.2673 58.9716L59.105 61.0824ZM58.6477 61.6535C58.6388 61.469 58.7514 61.2228 59.105 61.0824L58.2673 58.9716C57.1997 59.3953 56.3145 60.4205 56.3795 61.7632L58.6477 61.6535ZM74.9059 78.6009C67.5971 75.2276 63.5743 71.6106 61.3626 68.5553C59.1555 65.5065 58.7111 62.9614 58.6477 61.6535L56.3795 61.7632C56.4618 63.4636 57.0307 66.4442 59.523 69.887C62.0107 73.3233 66.3733 77.1639 73.9542 80.6628L74.9059 78.6009ZM102.753 87.6842C100.066 87.1632 86.9128 84.4221 74.9254 78.6101L73.9347 80.6536C86.1938 86.5974 99.5819 89.3825 102.321 89.9136L102.753 87.6842ZM104.17 88.3687C103.763 88.0194 103.28 87.7863 102.753 87.6842L102.321 89.9136C102.461 89.9408 102.584 90.0001 102.692 90.0929L104.17 88.3687ZM103.174 93.4923C105.427 92.7544 105.932 89.8786 104.17 88.3687L102.692 90.0929C103.148 90.4839 102.989 91.1631 102.467 91.3342L103.174 93.4923ZM83.0462 98.6585C90.3909 97.4926 98.7716 94.9339 103.174 93.4923L102.467 91.3342C98.0855 92.769 89.8473 95.2795 82.6901 96.4156L83.0462 98.6585ZM59.0931 95.2519C59.2109 95.3131 69.7477 100.769 83.0462 98.6585L82.6901 96.4156C70.1176 98.4113 60.1181 93.2252 60.1398 93.2365L59.0931 95.2519ZM59.1084 95.2597L59.1087 95.2598L60.1243 93.2286L60.124 93.2285L59.1084 95.2597ZM43.874 72.5404C45.4197 88.1673 59.0107 95.2092 59.0936 95.2522L60.1387 93.236C60.1762 93.2554 57.0099 91.6173 53.6641 88.1608C50.3237 84.7098 46.8434 79.4889 46.134 72.3168L43.874 72.5404ZM55.6212 35.1332C55.6212 35.9625 54.9489 36.6348 54.1195 36.6348V38.9058C56.2031 38.9058 57.8921 37.2167 57.8921 35.1332H55.6212ZM54.1195 33.6316C54.9489 33.6316 55.6212 34.3039 55.6212 35.1332H57.8921C57.8921 33.0497 56.2031 31.3606 54.1195 31.3606V33.6316ZM52.6179 35.1332C52.6179 34.3039 53.2902 33.6316 54.1195 33.6316V31.3606C52.036 31.3606 50.3469 33.0497 50.3469 35.1332H52.6179ZM54.1195 36.6348C53.2902 36.6348 52.6179 35.9625 52.6179 35.1332H50.3469C50.3469 37.2167 52.036 38.9058 54.1195 38.9058V36.6348Z" fill="black"/>
</g>
</g>
<defs>
<filter id="filter0_d_798_322" x="-16.4374" y="-14.3673" width="189.993" height="190.183" filterUnits="userSpaceOnUse" color-interpolation-filters="sRGB">
<feFlood flood-opacity="0" result="BackgroundImageFix"/>
<feColorMatrix in="SourceAlpha" type="matrix" values="0 0 0 0 0 0 0 0 0 0 0 0 0 0 0 0 0 0 127 0" result="hardAlpha"/>
<feOffset dy="9.856"/>
<feGaussianBlur stdDeviation="24.64"/>
<feComposite in2="hardAlpha" operator="out"/>
<feColorMatrix type="matrix" values="0 0 0 0 0 0 0 0 0 0 0 0 0 0 0 0 0 0 0.1 0"/>
<feBlend mode="normal" in2="BackgroundImageFix" result="effect1_dropShadow_798_322"/>
<feBlend mode="normal" in="SourceGraphic" in2="effect1_dropShadow_798_322" result="shape"/>
</filter>
<linearGradient id="paint0_linear_798_322" x1="20.5" y1="8" x2="131.5" y2="138.5" gradientUnits="userSpaceOnUse">
<stop stop-color="#FF6A00"/>
<stop offset="1" stop-color="#EF453C"/>
</linearGradient>
<clipPath id="clip0_798_322">
<rect width="142" height="142" rx="33.2812" fill="white"/>
</clipPath>
</defs>
</svg>
