<svg width="11963" height="2509" viewBox="0 0 11963 2509" fill="none" xmlns="http://www.w3.org/2000/svg">
<path fill-rule="evenodd" clip-rule="evenodd" d="M1109.86 349C863.518 349 754.958 470.078 754.958 470.078C754.958 470.078 635.028 471.381 558.716 478.436C486.103 485.149 375 503.488 375 503.488C375 503.488 627.179 581.759 729.906 641.276C832.633 700.792 901.096 808.29 901.096 808.29C901.096 808.29 738.257 875.096 654.749 1121.44C654.749 1121.44 596.294 1259.23 596.294 1359.44C596.294 1589.08 571.242 1672.59 571.242 1672.59C548.414 1741.89 475.209 1843.78 475.209 1843.78H800.887L867.693 1680.94C867.693 1680.94 1022.18 1811.14 1247.65 1847.96C1473.12 1884.77 1686.06 1814.55 1686.06 1814.55C1686.06 1814.55 1531.58 1948.16 1264.35 1981.57C997.129 2014.97 805.063 1939.81 805.063 1939.81L441.806 1948.16C441.806 1948.16 654.709 2073.08 805.063 2115.18C955.227 2157.23 1046.54 2164.33 1201.72 2161.11C1357.45 2157.88 1449.34 2150.76 1594.21 2094.3C1619.26 2084.54 1761.22 2022.57 1848.9 1948.16C1929.96 1879.39 2024.27 1743.57 2024.27 1743.57L2253.91 1877.18C2253.91 1877.18 2287.32 1893.88 2312.37 1864.66C2337.42 1835.43 2320.72 1806.2 2320.72 1806.2L2132.83 1655.89C2132.83 1655.89 2291.49 1543.15 2287.32 1534.8C2283.14 1526.45 2086.9 1572.38 2086.9 1572.38C2086.9 1572.38 1976.05 1384.58 1865.61 1280.11C1767.28 1187.1 1585.86 1075.51 1585.86 1075.51C1585.86 1075.51 1739.42 1002.81 1711.12 770.712C1690.24 599.522 1523.23 470.078 1523.23 470.078C1523.23 470.078 1356.21 349 1109.86 349ZM752.914 1284.33C723.591 987.879 1024.31 820.864 1024.31 820.864C1024.31 820.864 932.192 752.056 890.612 703.954C849.033 655.852 811.369 574.518 811.369 574.518C811.369 574.518 924.015 609.781 986.646 616.271C1032.57 621.03 1224.64 599.57 1224.64 599.57C1224.64 599.57 1462.06 587.044 1475.16 779.11C1489.41 987.879 1232.99 987.879 1232.99 987.879C1232.99 987.879 1158.18 993.981 1114.16 1004.58C1070.13 1015.18 1007.52 1042.16 1007.52 1042.16C1007.52 1042.16 969.944 1255.1 1349.9 1430.47C1625.48 1564.08 1930.28 1618.36 1930.28 1618.36L1988.73 1668.46C1988.73 1668.46 1732.7 1760.14 1521.09 1793.72C1258.04 1835.48 1049.36 1726.92 1049.36 1726.92C1049.36 1726.92 783.062 1589.13 752.914 1284.33ZM917.797 541.071C936.245 541.071 951.2 526.116 951.2 507.668C951.2 489.22 936.245 474.265 917.797 474.265C899.349 474.265 884.394 489.22 884.394 507.668C884.394 526.116 899.349 541.071 917.797 541.071Z" fill="white"/>
<path d="M2826.1 1833V676.195H3268.94C3352.54 676.195 3422.01 689.375 3477.37 715.734C3533.1 741.717 3574.71 777.302 3602.2 822.49C3630.06 867.678 3644 918.891 3644 976.128C3644 1023.2 3634.96 1063.49 3616.88 1097.01C3598.81 1130.14 3574.52 1157.07 3544.02 1177.78C3513.52 1198.49 3479.44 1213.36 3441.78 1222.4V1233.7C3482.83 1235.96 3522.18 1248.57 3559.83 1271.54C3597.87 1294.14 3628.93 1326.14 3653.03 1367.57C3677.13 1408.99 3689.18 1459.07 3689.18 1517.82C3689.18 1577.69 3674.69 1631.54 3645.69 1679.36C3616.7 1726.81 3573.01 1764.28 3514.65 1791.77C3456.28 1819.26 3382.85 1833 3294.36 1833H2826.1ZM3035.66 1657.9H3261.03C3337.1 1657.9 3391.89 1643.4 3425.4 1614.4C3459.29 1585.03 3476.24 1547.38 3476.24 1501.44C3476.24 1467.17 3467.76 1436.29 3450.82 1408.8C3433.87 1380.93 3409.77 1359.09 3378.52 1343.28C3347.26 1327.09 3309.98 1318.99 3266.68 1318.99H3035.66V1657.9ZM3035.66 1168.18H3242.96C3279.11 1168.18 3311.68 1161.59 3340.67 1148.41C3369.67 1134.85 3392.45 1115.83 3409.02 1091.36C3425.97 1066.5 3434.44 1037.13 3434.44 1003.24C3434.44 958.43 3418.62 921.526 3386.99 892.531C3355.74 863.536 3309.23 849.038 3247.47 849.038H3035.66V1168.18ZM4415.43 1468.11V965.396H4619.91V1833H4421.65V1678.8H4412.61C4393.03 1727.37 4360.83 1767.1 4316.02 1797.98C4271.59 1828.86 4216.8 1844.3 4151.65 1844.3C4094.79 1844.3 4044.52 1831.68 4000.84 1806.45C3957.53 1780.85 3923.64 1743.75 3899.17 1695.18C3874.69 1646.22 3862.45 1587.1 3862.45 1517.82V965.396H4066.92V1486.18C4066.92 1541.16 4081.99 1584.84 4112.11 1617.23C4142.24 1649.61 4181.78 1665.81 4230.73 1665.81C4260.86 1665.81 4290.04 1658.46 4318.28 1643.78C4346.52 1629.09 4369.68 1607.25 4387.76 1578.25C4406.21 1548.88 4415.43 1512.17 4415.43 1468.11ZM5269.62 965.396V1123.55H4756.74V965.396H5269.62ZM4884.96 1833V883.494C4884.96 825.126 4897.01 776.549 4921.11 737.763C4945.59 698.977 4978.35 669.982 5019.4 650.777C5060.44 631.572 5106.01 621.97 5156.09 621.97C5191.49 621.97 5222.93 624.794 5250.42 630.442C5277.91 636.091 5298.24 641.175 5311.42 645.693L5270.75 803.85C5262.09 801.214 5251.17 798.578 5237.99 795.942C5224.81 792.93 5210.13 791.424 5193.93 791.424C5155.9 791.424 5128.98 800.649 5113.16 819.101C5097.72 837.176 5090 863.159 5090 897.05V1833H4884.96ZM5869.21 965.396V1123.55H5356.33V965.396H5869.21ZM5484.55 1833V883.494C5484.55 825.126 5496.6 776.549 5520.7 737.763C5545.17 698.977 5577.94 669.982 5618.98 650.777C5660.03 631.572 5705.59 621.97 5755.67 621.97C5791.07 621.97 5822.51 624.794 5850 630.442C5877.49 636.091 5897.83 641.175 5911.01 645.693L5870.34 803.85C5861.68 801.214 5850.76 798.578 5837.58 795.942C5824.4 792.93 5809.71 791.424 5793.52 791.424C5755.49 791.424 5728.56 800.649 5712.75 819.101C5697.31 837.176 5689.59 863.159 5689.59 897.05V1833H5484.55ZM6233.82 676.195V1833H6029.34V676.195H6233.82ZM6828.18 1849.95C6741.19 1849.95 6666.06 1831.87 6602.8 1795.72C6539.92 1759.19 6491.53 1707.6 6457.64 1640.95C6423.75 1573.92 6406.8 1495.03 6406.8 1404.28C6406.8 1315.04 6423.75 1236.71 6457.64 1169.31C6491.9 1101.52 6539.73 1048.81 6601.11 1011.15C6662.49 973.116 6734.6 954.099 6817.44 954.099C6870.92 954.099 6921.37 962.76 6968.82 980.082C7016.65 997.028 7058.82 1023.39 7095.35 1059.16C7132.25 1094.93 7161.25 1140.5 7182.33 1195.85C7203.42 1250.83 7213.97 1316.35 7213.97 1392.42V1455.12H6502.82V1317.3H7017.96C7017.59 1278.13 7009.11 1243.3 6992.55 1212.8C6975.98 1181.92 6952.82 1157.63 6923.07 1139.93C6893.7 1122.24 6859.43 1113.39 6820.27 1113.39C6778.47 1113.39 6741.75 1123.55 6710.12 1143.89C6678.49 1163.85 6653.83 1190.21 6636.13 1222.97C6618.81 1255.35 6609.96 1290.94 6609.58 1329.72V1450.03C6609.58 1500.49 6618.81 1543.8 6637.26 1579.95C6655.71 1615.72 6681.5 1643.21 6714.64 1662.42C6747.78 1681.24 6786.57 1690.66 6831 1690.66C6860.75 1690.66 6887.67 1686.52 6911.77 1678.23C6935.87 1669.57 6956.77 1656.96 6974.47 1640.39C6992.17 1623.82 7005.54 1603.3 7014.57 1578.82L7205.49 1600.28C7193.44 1650.74 7170.47 1694.8 7136.58 1732.46C7103.07 1769.74 7060.14 1798.73 7007.8 1819.44C6955.45 1839.78 6895.58 1849.95 6828.18 1849.95ZM8182.54 1833H7790.53V676.195H8190.44C8305.3 676.195 8403.96 699.354 8486.42 745.671C8569.27 791.612 8632.91 857.699 8677.34 943.932C8721.78 1030.17 8743.99 1133.34 8743.99 1253.47C8743.99 1373.97 8721.59 1477.52 8676.78 1564.13C8632.34 1650.74 8568.14 1717.21 8484.16 1763.52C8400.57 1809.84 8300.02 1833 8182.54 1833ZM8000.09 1651.68H8172.37C8252.95 1651.68 8320.17 1637 8374.02 1607.63C8427.87 1577.88 8468.35 1533.63 8495.46 1474.89C8522.57 1415.77 8536.13 1341.96 8536.13 1253.47C8536.13 1164.98 8522.57 1091.55 8495.46 1033.18C8468.35 974.434 8428.24 930.564 8375.15 901.569C8322.43 872.197 8256.91 857.511 8178.58 857.511H8000.09V1651.68ZM9312.51 1849.95C9227.78 1849.95 9154.35 1831.31 9092.22 1794.03C9030.09 1756.75 8981.89 1704.59 8947.62 1637.56C8913.73 1570.53 8896.78 1492.21 8896.78 1402.59C8896.78 1312.96 8913.73 1234.45 8947.62 1167.05C8981.89 1099.64 9030.09 1047.3 9092.22 1010.02C9154.35 972.739 9227.78 954.099 9312.51 954.099C9397.24 954.099 9470.67 972.739 9532.8 1010.02C9594.93 1047.3 9642.94 1099.64 9676.84 1167.05C9711.1 1234.45 9728.24 1312.96 9728.24 1402.59C9728.24 1492.21 9711.1 1570.53 9676.84 1637.56C9642.94 1704.59 9594.93 1756.75 9532.8 1794.03C9470.67 1831.31 9397.24 1849.95 9312.51 1849.95ZM9313.64 1686.14C9359.58 1686.14 9397.99 1673.53 9428.87 1648.3C9459.75 1622.69 9482.72 1588.42 9497.78 1545.49C9513.22 1502.56 9520.94 1454.74 9520.94 1402.02C9520.94 1348.93 9513.22 1300.91 9497.78 1257.99C9482.72 1214.68 9459.75 1180.23 9428.87 1154.62C9397.99 1129.01 9359.58 1116.21 9313.64 1116.21C9266.57 1116.21 9227.41 1129.01 9196.15 1154.62C9165.27 1180.23 9142.11 1214.68 9126.68 1257.99C9111.61 1300.91 9104.08 1348.93 9104.08 1402.02C9104.08 1454.74 9111.61 1502.56 9126.68 1545.49C9142.11 1588.42 9165.27 1622.69 9196.15 1648.3C9227.41 1673.53 9266.57 1686.14 9313.64 1686.14ZM10280.2 1849.95C10193.6 1849.95 10119.3 1830.93 10057.1 1792.9C9995.36 1754.86 9947.73 1702.33 9914.21 1635.3C9881.07 1567.9 9864.51 1490.33 9864.51 1402.59C9864.51 1314.47 9881.45 1236.71 9915.34 1169.31C9949.23 1101.52 9997.06 1048.81 10058.8 1011.15C10120.9 973.116 10194.4 954.099 10279.1 954.099C10349.5 954.099 10411.8 967.091 10466.1 993.074C10520.7 1018.68 10564.2 1055.02 10596.5 1102.09C10628.9 1148.78 10647.4 1203.38 10651.9 1265.89H10456.5C10448.6 1224.1 10429.7 1189.26 10400 1161.4C10370.6 1133.16 10331.3 1119.03 10281.9 1119.03C10240.1 1119.03 10203.4 1130.33 10171.8 1152.93C10140.2 1175.14 10115.5 1207.15 10097.8 1248.95C10080.5 1290.75 10071.8 1340.83 10071.8 1399.2C10071.8 1458.32 10080.5 1509.15 10097.8 1551.71C10115.1 1593.88 10139.4 1626.45 10170.7 1649.42C10202.3 1672.02 10239.4 1683.32 10281.9 1683.32C10312.1 1683.32 10339 1677.67 10362.7 1666.37C10386.8 1654.7 10406.9 1637.94 10423.1 1616.1C10439.3 1594.26 10450.4 1567.71 10456.5 1536.46H10651.9C10647 1597.84 10628.9 1652.25 10597.7 1699.7C10566.4 1746.77 10523.9 1783.67 10470 1810.41C10416.2 1836.77 10352.9 1849.95 10280.2 1849.95ZM11505.5 1194.72L11319.1 1215.06C11313.9 1196.23 11304.6 1178.53 11291.4 1161.96C11278.6 1145.39 11261.3 1132.03 11239.5 1121.86C11217.6 1111.69 11190.9 1106.61 11159.3 1106.61C11116.7 1106.61 11080.9 1115.83 11052 1134.29C11023.3 1152.74 11009.2 1176.65 11009.6 1206.02C11009.2 1231.25 11018.4 1251.77 11037.3 1267.59C11056.5 1283.4 11088.1 1296.4 11132.2 1306.56L11280.2 1338.19C11362.2 1355.89 11423.2 1383.95 11463.2 1422.36C11503.5 1460.77 11523.8 1511.04 11524.2 1573.17C11523.8 1627.77 11507.8 1675.97 11476.2 1717.77C11444.9 1759.19 11401.4 1791.58 11345.7 1814.92C11289.9 1838.27 11225.9 1849.95 11153.6 1849.95C11047.4 1849.95 10962 1827.73 10897.2 1783.29C10832.4 1738.48 10793.8 1676.16 10781.4 1596.33L10980.8 1577.12C10989.8 1616.29 11009 1645.85 11038.4 1665.81C11067.8 1685.76 11106 1695.74 11153.1 1695.74C11201.6 1695.74 11240.6 1685.76 11270 1665.81C11299.7 1645.85 11314.6 1621.18 11314.6 1591.81C11314.6 1566.96 11305 1546.43 11285.8 1530.24C11267 1514.05 11237.6 1501.62 11197.7 1492.96L11049.7 1461.9C10966.5 1444.57 10904.9 1415.39 10865 1374.34C10825.1 1332.92 10805.3 1280.58 10805.7 1217.32C10805.3 1163.85 10819.8 1117.53 10849.2 1078.37C10878.9 1038.83 10920.2 1008.32 10972.9 986.86C11026 965.02 11087.2 954.099 11156.5 954.099C11258.1 954.099 11338.1 975.752 11396.5 1019.06C11455.3 1062.36 11491.6 1120.92 11505.5 1194.72Z" fill="white"/>
</svg>
