<svg width="496" height="224" viewBox="0 0 496 224" fill="none" xmlns="http://www.w3.org/2000/svg">
<path d="M227.407 155H198.433V69.498H227.992C236.481 69.498 243.773 71.2097 249.868 74.6332C255.991 78.0287 260.695 82.9134 263.979 89.2871C267.264 95.6607 268.906 103.287 268.906 112.166C268.906 121.072 267.25 128.726 263.937 135.127C260.653 141.529 255.908 146.441 249.701 149.865C243.522 153.288 236.091 155 227.407 155ZM213.922 141.599H226.656C232.612 141.599 237.58 140.513 241.56 138.342C245.54 136.143 248.532 132.873 250.536 128.531C252.54 124.161 253.542 118.706 253.542 112.166C253.542 105.625 252.54 100.197 250.536 95.8834C248.532 91.5415 245.568 88.299 241.644 86.1559C237.747 83.9849 232.904 82.8995 227.115 82.8995H213.922V141.599ZM310.926 156.252C304.664 156.252 299.236 154.875 294.644 152.119C290.052 149.364 286.489 145.509 283.956 140.555C281.451 135.601 280.199 129.811 280.199 123.187C280.199 116.563 281.451 110.76 283.956 105.778C286.489 100.796 290.052 96.9271 294.644 94.1717C299.236 91.4163 304.664 90.0385 310.926 90.0385C317.188 90.0385 322.616 91.4163 327.208 94.1717C331.801 96.9271 335.349 100.796 337.854 105.778C340.387 110.76 341.653 116.563 341.653 123.187C341.653 129.811 340.387 135.601 337.854 140.555C335.349 145.509 331.801 149.364 327.208 152.119C322.616 154.875 317.188 156.252 310.926 156.252ZM311.01 144.145C314.405 144.145 317.244 143.213 319.526 141.348C321.809 139.455 323.506 136.923 324.62 133.75C325.761 130.577 326.331 127.042 326.331 123.146C326.331 119.221 325.761 115.672 324.62 112.5C323.506 109.299 321.809 106.752 319.526 104.859C317.244 102.967 314.405 102.021 311.01 102.021C307.53 102.021 304.636 102.967 302.326 104.859C300.043 106.752 298.332 109.299 297.191 112.5C296.077 115.672 295.521 119.221 295.521 123.146C295.521 127.042 296.077 130.577 297.191 133.75C298.332 136.923 300.043 139.455 302.326 141.348C304.636 143.213 307.53 144.145 311.01 144.145ZM382.453 156.252C376.051 156.252 370.554 154.847 365.962 152.036C361.397 149.225 357.876 145.342 355.399 140.388C352.95 135.406 351.725 129.672 351.725 123.187C351.725 116.674 352.978 110.927 355.483 105.945C357.988 100.935 361.522 97.0385 366.087 94.2552C370.679 91.4441 376.107 90.0385 382.369 90.0385C387.574 90.0385 392.18 90.9988 396.188 92.9192C400.224 94.8118 403.438 97.4977 405.832 100.977C408.226 104.428 409.589 108.464 409.923 113.084H395.478C394.894 109.995 393.502 107.42 391.303 105.36C389.132 103.273 386.224 102.229 382.578 102.229C379.488 102.229 376.775 103.064 374.437 104.734C372.099 106.376 370.276 108.742 368.968 111.832C367.687 114.921 367.047 118.623 367.047 122.937C367.047 127.306 367.687 131.064 368.968 134.209C370.248 137.326 372.043 139.734 374.353 141.432C376.691 143.102 379.433 143.937 382.578 143.937C384.804 143.937 386.794 143.519 388.548 142.684C390.329 141.821 391.818 140.583 393.015 138.968C394.212 137.354 395.033 135.392 395.478 133.082H409.923C409.562 137.618 408.226 141.64 405.915 145.147C403.605 148.626 400.46 151.354 396.48 153.33C392.5 155.278 387.824 156.252 382.453 156.252ZM473.017 107.824L459.239 109.327C458.85 107.935 458.168 106.627 457.194 105.402C456.247 104.178 454.967 103.189 453.353 102.438C451.738 101.687 449.762 101.311 447.424 101.311C444.279 101.311 441.635 101.993 439.492 103.356C437.377 104.72 436.333 106.488 436.361 108.659C436.333 110.523 437.015 112.04 438.407 113.209C439.826 114.378 442.164 115.338 445.42 116.09L456.359 118.428C462.426 119.736 466.935 121.81 469.885 124.648C472.863 127.487 474.366 131.203 474.394 135.795C474.366 139.831 473.184 143.394 470.846 146.483C468.535 149.545 465.321 151.938 461.202 153.664C457.082 155.39 452.351 156.252 447.007 156.252C439.158 156.252 432.84 154.61 428.053 151.326C423.266 148.014 420.413 143.408 419.494 137.507L434.232 136.088C434.9 138.982 436.319 141.167 438.49 142.642C440.661 144.117 443.486 144.855 446.965 144.855C450.556 144.855 453.436 144.117 455.607 142.642C457.806 141.167 458.905 139.344 458.905 137.173C458.905 135.336 458.196 133.819 456.776 132.623C455.385 131.426 453.214 130.507 450.263 129.867L439.325 127.571C433.174 126.291 428.623 124.134 425.673 121.1C422.723 118.038 421.262 114.169 421.29 109.494C421.262 105.541 422.333 102.118 424.504 99.2233C426.703 96.3009 429.751 94.0464 433.647 92.46C437.572 90.8457 442.094 90.0385 447.216 90.0385C454.73 90.0385 460.645 91.6389 464.959 94.8397C469.301 98.0404 471.987 102.368 473.017 107.824Z" fill="white"/>
<g clip-path="url(#clip0_816_338)">
<rect x="16" y="41" width="142" height="142" rx="33.2812" fill="url(#paint0_linear_816_338)"/>
<g filter="url(#filter0_d_816_338)">
<path fill-rule="evenodd" clip-rule="evenodd" d="M79.1876 67.1914C69.6007 67.1914 64.2474 70.9116 62.4186 72.4776C61.935 72.8917 61.3322 73.1633 60.6957 73.1752C58.8495 73.2099 54.8341 73.3114 52.0211 73.5714C49.7502 73.7814 49.4764 76.9652 51.6158 77.755C54.8842 78.9616 58.3256 80.3618 60.4592 81.5979C63.427 83.3174 65.8147 85.8494 67.2827 87.6507C68.1765 88.7475 67.7165 90.3873 66.562 91.2053C63.8777 93.1073 59.4942 97.244 56.7823 105.184C56.7641 105.238 56.7437 105.292 56.7221 105.344C56.4048 106.11 53.8733 112.367 53.8733 116.997C53.8733 127.798 52.7489 132.041 52.646 132.406C52.6405 132.426 52.6355 132.441 52.6291 132.461C52.147 133.91 51.223 135.645 50.3191 137.161C49.3716 138.75 50.4829 140.87 52.3329 140.87H62.4349C63.3562 140.87 64.1862 140.314 64.5359 139.461L66.0684 135.726C66.6528 134.301 68.4874 133.822 69.7754 134.666C72.89 136.707 78.68 139.884 85.9792 141.076C89.6509 141.676 93.2551 141.699 96.4358 141.462C98.9115 141.278 100.016 144.036 97.7005 144.931C94.6857 146.096 91.0304 147.133 86.8025 147.662C75.2685 149.104 66.5752 146.442 64.5917 145.758C64.3074 145.66 64.0089 145.607 63.7082 145.614L54.2503 145.832C51.9634 145.884 51.2531 148.772 53.3018 149.79C56.6939 151.475 60.7549 153.293 64.1637 154.248C71.5654 156.32 76.0664 156.67 83.7154 156.512C91.3913 156.352 95.9207 156.002 103.061 153.219C104.296 152.737 111.293 149.683 115.615 146.015C118.346 143.699 121.381 139.839 123.03 137.627C123.737 136.677 125.048 136.39 126.071 136.985L135.517 142.481C135.558 142.505 135.599 142.527 135.644 142.546C135.96 142.679 137.37 143.171 138.46 141.899C139.297 140.923 139.189 139.947 139.032 139.419C138.95 139.145 138.757 138.926 138.533 138.747L131.961 133.49C130.783 132.547 130.833 130.737 132.05 129.846C134.326 128.181 137.354 125.899 137.225 125.641C137.073 125.336 131.734 126.497 128.97 127.121C128.002 127.34 127.004 126.915 126.476 126.075C124.722 123.281 120.574 116.998 116.439 113.086C113.55 110.354 109.207 107.297 106.169 105.272C104.669 104.272 104.685 101.714 105.834 100.325C107.709 98.0581 109.579 94.1681 108.824 87.9779C107.829 79.8224 100.106 73.5891 99.5896 73.1807C99.5706 73.1657 99.5544 73.1535 99.5346 73.1395C99.0026 72.7635 90.9206 67.1914 79.1876 67.1914ZM61.004 113.429C59.9712 102.987 67.2456 95.8028 71.482 92.5527C72.7891 91.5499 72.898 89.4576 71.6299 88.406C70.2893 87.2944 68.7613 85.9436 67.7913 84.8214C67.3017 84.255 66.8231 83.5951 66.3782 82.9187C65.2952 81.2722 66.9122 79.3441 68.8286 79.8036C70.1355 80.1169 71.4732 80.3905 72.5248 80.4995C74.6834 80.7231 83.3909 79.7718 84.1961 79.6829C84.2402 79.678 84.271 79.6754 84.3153 79.6738C85.2134 79.6423 95.9852 79.4539 96.6043 88.5259C97.2728 98.3234 85.8476 98.7927 84.7516 98.8152C84.69 98.8164 84.6369 98.8188 84.5755 98.8241C83.9929 98.8743 80.7777 99.1658 78.81 99.6395C77.4707 99.962 75.7824 100.592 74.6861 101.027C73.9755 101.309 73.4766 101.945 73.5136 102.708C73.6592 105.717 75.5403 113.76 90.4301 120.632C102.553 126.51 115.824 129.273 118.537 129.799C118.87 129.864 119.173 130.01 119.431 130.231C120.54 131.181 120.208 132.959 118.82 133.413C114.429 134.851 106.119 137.386 98.8681 138.537C85.9327 140.59 75.6645 135.269 75.6165 135.244L75.6162 135.244C75.568 135.219 62.4873 128.425 61.004 113.429ZM70.1195 78.7703C71.576 78.7703 72.7566 77.5896 72.7566 76.1332C72.7566 74.6768 71.576 73.4961 70.1195 73.4961C68.6631 73.4961 67.4824 74.6768 67.4824 76.1332C67.4824 77.5896 68.6631 78.7703 70.1195 78.7703Z" fill="black"/>
<path d="M62.4186 72.4776L63.1571 73.3401L63.1571 73.3401L62.4186 72.4776ZM60.6957 73.1752L60.717 74.3105L60.717 74.3105L60.6957 73.1752ZM52.0211 73.5714L51.9166 72.4408L51.9166 72.4408L52.0211 73.5714ZM51.6158 77.755L52.009 76.6898L52.009 76.6898L51.6158 77.755ZM60.4592 81.5979L59.8899 82.5804L59.8899 82.5804L60.4592 81.5979ZM67.2827 87.6507L66.4025 88.368L66.4025 88.368L67.2827 87.6507ZM66.562 91.2053L65.9055 90.2788L66.562 91.2053ZM56.7823 105.184L57.8568 105.551L57.8568 105.551L56.7823 105.184ZM56.7221 105.344L55.6731 104.909L55.6731 104.909L56.7221 105.344ZM52.646 132.406L51.553 132.098L51.553 132.098L52.646 132.406ZM52.6291 132.461L51.5517 132.102L51.5517 132.102L52.6291 132.461ZM50.3191 137.161L51.2943 137.742L51.2943 137.742L50.3191 137.161ZM64.5359 139.461L65.5864 139.892L65.5864 139.892L64.5359 139.461ZM66.0684 135.726L67.1189 136.157L67.1189 136.157L66.0684 135.726ZM69.7754 134.666L70.3976 133.716L70.3976 133.716L69.7754 134.666ZM85.9792 141.076L85.7963 142.197L85.7963 142.197L85.9792 141.076ZM96.4358 141.462L96.3513 140.33L96.3513 140.33L96.4358 141.462ZM97.7005 144.931L97.2912 143.872L97.2912 143.872L97.7005 144.931ZM86.8025 147.662L86.6616 146.535L86.6616 146.535L86.8025 147.662ZM64.5917 145.758L64.9619 144.685L64.9619 144.685L64.5917 145.758ZM63.7082 145.614L63.7343 146.75L63.7343 146.75L63.7082 145.614ZM54.2503 145.832L54.2242 144.697L54.2242 144.697L54.2503 145.832ZM53.3018 149.79L52.7965 150.807L52.7965 150.807L53.3018 149.79ZM64.1637 154.248L64.4699 153.154L64.4699 153.154L64.1637 154.248ZM83.7154 156.512L83.6918 155.376L83.6918 155.376L83.7154 156.512ZM103.061 153.219L103.474 154.277L103.474 154.277L103.061 153.219ZM115.615 146.015L114.881 145.15L114.881 145.15L115.615 146.015ZM123.03 137.627L122.119 136.948L122.119 136.948L123.03 137.627ZM126.071 136.985L126.642 136.004L126.642 136.004L126.071 136.985ZM135.517 142.481L134.946 143.462L134.946 143.462L135.517 142.481ZM135.644 142.546L135.203 143.592L135.203 143.592L135.644 142.546ZM138.46 141.899L137.598 141.16L137.598 141.16L138.46 141.899ZM139.032 139.419L137.943 139.742L137.943 139.742L139.032 139.419ZM138.533 138.747L139.243 137.861L139.243 137.861L138.533 138.747ZM131.961 133.49L132.671 132.603L132.671 132.603L131.961 133.49ZM132.05 129.846L132.721 130.763L132.721 130.763L132.05 129.846ZM137.225 125.641L136.21 126.148L136.21 126.148L137.225 125.641ZM128.97 127.121L129.22 128.228L129.22 128.228L128.97 127.121ZM126.476 126.075L127.437 125.471L127.437 125.471L126.476 126.075ZM116.439 113.086L115.658 113.911L115.658 113.911L116.439 113.086ZM106.169 105.272L105.539 106.217L105.539 106.217L106.169 105.272ZM105.834 100.325L106.709 101.048L106.709 101.048L105.834 100.325ZM108.824 87.9779L107.697 88.1154L107.697 88.1154L108.824 87.9779ZM99.5896 73.1807L98.8851 74.0712L98.8851 74.0713L99.5896 73.1807ZM99.5346 73.1395L100.19 72.2123L100.19 72.2123L99.5346 73.1395ZM71.482 92.5527L72.1732 93.4536L72.1732 93.4536L71.482 92.5527ZM61.004 113.429L59.874 113.54L61.004 113.429ZM71.6299 88.406L72.3547 87.5319L72.3547 87.5319L71.6299 88.406ZM67.7913 84.8214L68.6503 84.0789L68.6503 84.0789L67.7913 84.8214ZM66.3782 82.9187L65.4295 83.5427L65.4295 83.5427L66.3782 82.9187ZM68.8286 79.8036L69.0933 78.6994L69.0933 78.6994L68.8286 79.8036ZM72.5248 80.4995L72.4078 81.6289L72.4078 81.6289L72.5248 80.4995ZM84.1961 79.6829L84.3208 80.8115L84.3208 80.8115L84.1961 79.6829ZM84.3153 79.6738L84.2755 78.539L84.2755 78.539L84.3153 79.6738ZM96.6043 88.5259L95.4714 88.6033L95.4714 88.6033L96.6043 88.5259ZM84.7516 98.8152L84.7283 97.6799L84.7283 97.6799L84.7516 98.8152ZM84.5755 98.8241L84.673 99.9554L84.6731 99.9554L84.5755 98.8241ZM78.81 99.6395L78.5442 98.5356L78.5442 98.5356L78.81 99.6395ZM74.6861 101.027L75.105 102.082L75.105 102.082L74.6861 101.027ZM73.5136 102.708L74.6477 102.653L74.6477 102.653L73.5136 102.708ZM90.4301 120.632L90.9254 119.61L90.9157 119.605L90.9059 119.601L90.4301 120.632ZM118.537 129.799L118.753 128.684L118.753 128.684L118.537 129.799ZM119.431 130.231L120.17 129.369L120.17 129.369L119.431 130.231ZM118.82 133.413L119.174 134.492L119.174 134.492L118.82 133.413ZM98.8681 138.537L99.0462 139.658L99.0462 139.658L98.8681 138.537ZM75.6165 135.244L76.1398 134.237L76.1321 134.233L76.1243 134.229L75.6165 135.244ZM75.6162 135.244L75.0936 136.252L75.101 136.256L75.1084 136.26L75.6162 135.244ZM63.1571 73.3401C64.8218 71.9146 69.9218 68.3269 79.1876 68.3269V66.0559C69.2796 66.0559 63.6729 69.9086 61.68 71.6151L63.1571 73.3401ZM60.717 74.3105C61.6653 74.2927 62.5134 73.8913 63.1571 73.3401L61.68 71.6151C61.3566 71.8921 60.9992 72.0338 60.6744 72.0399L60.717 74.3105ZM52.1256 74.7021C54.8918 74.4463 58.8685 74.3452 60.717 74.3105L60.6744 72.0399C58.8305 72.0745 54.7763 72.1764 51.9166 72.4408L52.1256 74.7021ZM52.009 76.6898C51.4854 76.4965 51.251 76.0302 51.2953 75.55C51.3381 75.0853 51.6187 74.7489 52.1256 74.7021L51.9166 72.4408C50.1527 72.6038 49.1609 73.9644 49.0339 75.3415C48.9084 76.7031 49.6068 78.2237 51.2226 78.8202L52.009 76.6898ZM61.0284 80.6154C58.8013 79.3251 55.2763 77.8959 52.009 76.6898L51.2226 78.8202C54.492 80.0272 57.85 81.3985 59.8899 82.5804L61.0284 80.6154ZM68.1629 86.9333C66.6562 85.0846 64.1668 82.4337 61.0284 80.6154L59.8899 82.5804C62.6873 84.2011 64.9731 86.6141 66.4025 88.368L68.1629 86.9333ZM67.2185 92.1318C68.7432 91.0514 69.5902 88.6848 68.1629 86.9333L66.4025 88.368C66.7629 88.8102 66.6898 89.7231 65.9055 90.2788L67.2185 92.1318ZM57.8568 105.551C60.4808 97.8685 64.6995 93.9166 67.2185 92.1318L65.9055 90.2788C63.0558 92.2981 58.5076 96.6195 55.7078 104.817L57.8568 105.551ZM57.7712 105.778C57.8014 105.705 57.8304 105.629 57.8568 105.551L55.7078 104.817C55.6978 104.847 55.6859 104.878 55.6731 104.909L57.7712 105.778ZM55.0088 116.997C55.0088 114.851 55.6023 112.258 56.2662 110.048C56.9238 107.859 57.6206 106.142 57.7712 105.778L55.6731 104.909C55.5063 105.312 54.7788 107.106 54.0913 109.395C53.4101 111.662 52.7379 114.512 52.7379 116.997H55.0088ZM53.739 132.714C53.877 132.223 55.0088 127.873 55.0088 116.997H52.7379C52.7379 127.724 51.6207 131.858 51.553 132.098L53.739 132.714ZM53.7066 132.819C53.716 132.79 53.727 132.756 53.739 132.714L51.553 132.098C51.5532 132.098 51.5536 132.096 51.554 132.095C51.5541 132.095 51.5537 132.096 51.5517 132.102L53.7066 132.819ZM51.2943 137.742C52.2071 136.211 53.184 134.39 53.7066 132.819L51.5517 132.102C51.11 133.43 50.2388 135.078 49.3438 136.579L51.2943 137.742ZM52.3329 139.735C51.4388 139.735 50.7594 138.639 51.2943 137.742L49.3438 136.579C47.9839 138.86 49.5269 142.006 52.3329 142.006V139.735ZM62.4349 139.735H52.3329V142.006H62.4349V139.735ZM63.4854 139.03C63.3106 139.457 62.8956 139.735 62.4349 139.735V142.006C63.8169 142.006 65.0619 141.171 65.5864 139.892L63.4854 139.03ZM65.0179 135.295L63.4854 139.03L65.5864 139.892L67.1189 136.157L65.0179 135.295ZM70.3976 133.716C68.5731 132.521 65.8997 133.146 65.0179 135.295L67.1189 136.157C67.4059 135.457 68.4018 135.124 69.1531 135.616L70.3976 133.716ZM86.1622 139.955C79.0752 138.798 73.4362 135.707 70.3976 133.716L69.1531 135.616C72.3437 137.707 78.2847 140.97 85.7963 142.197L86.1622 139.955ZM96.3513 140.33C93.2364 140.562 89.7249 140.537 86.1622 139.955L85.7963 142.197C89.5769 142.814 93.2738 142.836 96.5202 142.594L96.3513 140.33ZM98.1099 145.99C98.9032 145.683 99.5195 145.168 99.8514 144.477C100.183 143.788 100.174 143.039 99.9262 142.388C99.4311 141.087 98.0311 140.205 96.3513 140.33L96.5202 142.594C97.3162 142.535 97.7064 142.94 97.8037 143.196C97.852 143.322 97.8402 143.419 97.8046 143.494C97.7697 143.566 97.6558 143.731 97.2912 143.872L98.1099 145.99ZM86.9433 148.789C91.2731 148.247 95.0186 147.185 98.1099 145.99L97.2912 143.872C94.3529 145.007 90.7876 146.019 86.6616 146.535L86.9433 148.789ZM64.2215 146.832C66.3004 147.549 75.1773 150.259 86.9433 148.789L86.6616 146.535C75.3598 147.948 66.85 145.336 64.9619 144.685L64.2215 146.832ZM63.7343 146.75C63.8848 146.746 64.0491 146.772 64.2215 146.832L64.9619 144.685C64.5657 144.548 64.133 144.469 63.6821 144.479L63.7343 146.75ZM54.2764 146.967L63.7343 146.75L63.6821 144.479L54.2242 144.697L54.2764 146.967ZM53.807 148.773C53.2829 148.513 53.1644 148.085 53.2537 147.716C53.3454 147.338 53.67 146.981 54.2764 146.967L54.2242 144.697C52.5436 144.735 51.3697 145.848 51.0466 147.181C50.7213 148.524 51.272 150.049 52.7965 150.807L53.807 148.773ZM64.4699 153.154C61.1677 152.23 57.1845 150.451 53.807 148.773L52.7965 150.807C56.2032 152.499 60.3422 154.357 63.8575 155.341L64.4699 153.154ZM83.6918 155.376C76.1252 155.533 71.7396 155.19 64.4699 153.154L63.8575 155.341C71.3913 157.451 76.0076 157.807 83.7389 157.647L83.6918 155.376ZM102.649 152.161C95.6884 154.874 91.3121 155.218 83.6918 155.376L83.7389 157.647C91.4705 157.486 96.153 157.13 103.474 154.277L102.649 152.161ZM114.881 145.15C110.708 148.69 103.857 151.69 102.649 152.161L103.474 154.277C104.735 153.785 111.879 150.675 116.35 146.881L114.881 145.15ZM122.119 136.948C120.47 139.161 117.502 142.926 114.881 145.15L116.35 146.881C119.19 144.472 122.293 140.516 123.94 138.305L122.119 136.948ZM126.642 136.004C125.105 135.109 123.161 135.55 122.119 136.948L123.94 138.305C124.313 137.805 124.991 137.67 125.5 137.967L126.642 136.004ZM136.088 141.499L126.642 136.004L125.5 137.967L134.946 143.462L136.088 141.499ZM136.084 141.499C136.096 141.504 136.103 141.508 136.104 141.508C136.104 141.509 136.1 141.506 136.088 141.499L134.946 143.462C135.002 143.495 135.093 143.546 135.203 143.592L136.084 141.499ZM137.598 141.16C137.287 141.523 136.977 141.605 136.72 141.615C136.422 141.625 136.164 141.533 136.084 141.499L135.203 143.592C135.594 143.757 137.706 144.523 139.322 142.638L137.598 141.16ZM137.943 139.742C138.031 140.036 138.104 140.57 137.598 141.16L139.322 142.638C140.49 141.276 140.347 139.858 140.12 139.096L137.943 139.742ZM137.824 139.634C137.887 139.684 137.922 139.722 137.939 139.744C137.955 139.765 137.95 139.764 137.943 139.742L140.12 139.096C139.945 138.507 139.553 138.109 139.243 137.861L137.824 139.634ZM131.252 134.376L137.824 139.634L139.243 137.861L132.671 132.603L131.252 134.376ZM131.38 128.93C129.567 130.257 129.482 132.961 131.252 134.376L132.671 132.603C132.084 132.134 132.099 131.218 132.721 130.763L131.38 128.93ZM136.21 126.148C136.073 125.874 136.085 125.621 136.108 125.482C136.132 125.344 136.177 125.246 136.198 125.204C136.239 125.121 136.276 125.082 136.259 125.103C136.235 125.132 136.164 125.207 136.024 125.336C135.754 125.583 135.343 125.924 134.835 126.325C133.827 127.122 132.515 128.099 131.38 128.93L132.721 130.763C133.862 129.928 135.201 128.931 136.244 128.106C136.762 127.697 137.226 127.314 137.559 127.009C137.72 126.861 137.882 126.703 138.007 126.552C138.066 126.481 138.156 126.365 138.229 126.22C138.266 126.146 138.321 126.021 138.348 125.859C138.375 125.696 138.386 125.423 138.241 125.133L136.21 126.148ZM129.22 128.228C130.6 127.917 132.612 127.474 134.294 127.147C135.138 126.983 135.88 126.852 136.411 126.781C136.682 126.745 136.864 126.729 136.966 126.726C137.024 126.725 137.007 126.73 136.95 126.72C136.923 126.715 136.834 126.7 136.723 126.648C136.625 126.603 136.369 126.467 136.21 126.148L138.241 125.133C138.072 124.795 137.797 124.643 137.669 124.584C137.528 124.52 137.401 124.493 137.326 124.48C137.172 124.455 137.022 124.453 136.914 124.456C136.684 124.461 136.403 124.491 136.109 124.53C135.51 124.611 134.715 124.752 133.861 124.918C132.144 125.251 130.105 125.701 128.72 126.013L129.22 128.228ZM125.514 126.678C126.294 127.92 127.774 128.555 129.22 128.228L128.72 126.013C128.23 126.124 127.714 125.911 127.437 125.471L125.514 126.678ZM115.658 113.911C119.678 117.714 123.759 123.884 125.514 126.678L127.437 125.471C125.684 122.678 121.47 116.283 117.219 112.261L115.658 113.911ZM105.539 106.217C108.573 108.239 112.846 111.251 115.658 113.911L117.219 112.261C114.254 109.457 109.84 106.354 106.798 104.327L105.539 106.217ZM104.959 99.6009C104.182 100.541 103.823 101.814 103.873 102.992C103.923 104.169 104.397 105.456 105.539 106.217L106.798 104.327C106.44 104.088 106.172 103.596 106.142 102.896C106.113 102.199 106.337 101.498 106.709 101.048L104.959 99.6009ZM107.697 88.1154C108.413 93.9865 106.642 97.567 104.959 99.601L106.709 101.048C108.776 98.5491 110.745 94.3498 109.951 87.8405L107.697 88.1154ZM98.8851 74.0713C99.1066 74.2465 101.096 75.8479 103.143 78.3869C105.202 80.9394 107.236 84.3385 107.697 88.1154L109.951 87.8405C109.417 83.4618 107.093 79.6666 104.911 76.9614C102.719 74.2429 100.589 72.5234 100.294 72.2902L98.8851 74.0713ZM98.8792 74.0668C98.8815 74.0684 98.882 74.0688 98.8817 74.0685C98.8814 74.0683 98.8822 74.0689 98.8851 74.0712L100.294 72.2903C100.26 72.2631 100.227 72.2386 100.19 72.2123L98.8792 74.0668ZM79.1876 68.3269C90.578 68.3269 98.4264 73.7468 98.8792 74.0668L100.19 72.2123C99.5787 71.7803 91.2631 66.0559 79.1876 66.0559V68.3269ZM70.7909 91.6518C66.4851 94.9551 58.7799 102.479 59.874 113.54L62.134 113.317C61.1625 103.495 68.0061 96.6505 72.1732 93.4536L70.7909 91.6518ZM70.9051 89.2801C71.571 89.8323 71.5627 91.0597 70.7909 91.6518L72.1732 93.4536C74.0155 92.0402 74.225 89.0829 72.3547 87.5319L70.9051 89.2801ZM66.9323 85.564C67.9687 86.763 69.5602 88.1648 70.9051 89.2801L72.3547 87.5319C71.0185 86.4239 69.5539 85.1242 68.6503 84.0789L66.9323 85.564ZM65.4295 83.5427C65.8913 84.2448 66.3999 84.9481 66.9323 85.564L68.6503 84.0789C68.2035 83.5619 67.7548 82.9454 67.3268 82.2947L65.4295 83.5427ZM69.0933 78.6994C67.6929 78.3636 66.368 78.8998 65.5948 79.8586C64.8048 80.8381 64.5929 82.2707 65.4295 83.5427L67.3268 82.2947C67.0805 81.9202 67.1356 81.5655 67.3625 81.2842C67.6061 80.9821 68.0479 80.784 68.5638 80.9077L69.0933 78.6994ZM72.6419 79.37C71.6666 79.269 70.3874 79.0097 69.0933 78.6994L68.5638 80.9077C69.8835 81.2242 71.2798 81.512 72.4078 81.6289L72.6419 79.37ZM84.0714 78.5543C83.672 78.5984 81.304 78.8573 78.7698 79.0772C77.5021 79.1872 76.2006 79.2867 75.0867 79.3448C73.9452 79.4044 73.081 79.4155 72.6419 79.37L72.4078 81.6289C73.048 81.6952 74.0816 81.6713 75.2051 81.6127C76.3561 81.5526 77.6865 81.4506 78.9661 81.3396C81.5266 81.1175 83.915 80.8563 84.3208 80.8115L84.0714 78.5543ZM84.2755 78.539C84.1952 78.5418 84.1349 78.5472 84.0714 78.5543L84.3208 80.8115C84.3367 80.8097 84.3422 80.8093 84.3441 80.8091C84.3449 80.8091 84.3474 80.8088 84.3552 80.8086L84.2755 78.539ZM97.7371 88.4486C97.5659 85.939 96.6822 84.0106 95.4002 82.5594C94.1318 81.1235 92.5222 80.2086 90.9638 79.6231C87.8692 78.4605 84.7716 78.5216 84.2755 78.539L84.3552 80.8086C84.7571 80.7945 87.4944 80.7456 90.1651 81.749C91.4892 82.2464 92.7448 82.9835 93.6983 84.0629C94.6382 85.1268 95.3332 86.5769 95.4714 88.6033L97.7371 88.4486ZM84.7749 99.9504C85.3668 99.9383 88.6887 99.8123 91.816 98.3669C93.3929 97.6381 94.9768 96.5483 96.1191 94.9144C97.2738 93.2627 97.9204 91.135 97.7371 88.4486L95.4714 88.6033C95.6224 90.8156 95.0916 92.4206 94.2579 93.6132C93.4117 94.8235 92.1962 95.6894 90.8633 96.3055C88.1712 97.5497 85.2325 97.6696 84.7283 97.6799L84.7749 99.9504ZM84.6731 99.9554C84.7039 99.9527 84.7314 99.9513 84.7749 99.9504L84.7283 97.6799C84.6486 97.6816 84.5699 97.6849 84.4779 97.6928L84.6731 99.9554ZM79.0758 100.743C80.9459 100.293 84.074 100.007 84.673 99.9554L84.4779 97.6928C83.9117 97.7416 80.6095 98.0384 78.5442 98.5356L79.0758 100.743ZM75.105 102.082C76.1969 101.649 77.8209 101.046 79.0758 100.743L78.5442 98.5356C77.1205 98.8784 75.3679 99.5348 74.2673 99.9716L75.105 102.082ZM74.6477 102.653C74.6388 102.469 74.7514 102.223 75.105 102.082L74.2673 99.9716C73.1997 100.395 72.3145 101.421 72.3795 102.763L74.6477 102.653ZM90.9059 119.601C83.5971 116.228 79.5743 112.611 77.3626 109.555C75.1555 106.507 74.7111 103.961 74.6477 102.653L72.3795 102.763C72.4618 104.464 73.0307 107.444 75.523 110.887C78.0107 114.323 82.3733 118.164 89.9542 121.663L90.9059 119.601ZM118.753 128.684C116.066 128.163 102.913 125.422 90.9254 119.61L89.9347 121.654C102.194 127.597 115.582 130.382 118.321 130.914L118.753 128.684ZM120.17 129.369C119.763 129.019 119.28 128.786 118.753 128.684L118.321 130.914C118.461 130.941 118.584 131 118.692 131.093L120.17 129.369ZM119.174 134.492C121.427 133.754 121.932 130.879 120.17 129.369L118.692 131.093C119.148 131.484 118.989 132.163 118.467 132.334L119.174 134.492ZM99.0462 139.658C106.391 138.493 114.772 135.934 119.174 134.492L118.467 132.334C114.086 133.769 105.847 136.28 98.6901 137.416L99.0462 139.658ZM75.0931 136.252C75.2109 136.313 85.7477 141.769 99.0462 139.658L98.6901 137.416C86.1176 139.411 76.1181 134.225 76.1398 134.237L75.0931 136.252ZM75.1084 136.26L75.1087 136.26L76.1243 134.229L76.124 134.228L75.1084 136.26ZM59.874 113.54C61.4197 129.167 75.0107 136.209 75.0936 136.252L76.1387 134.236C76.1762 134.255 73.0099 132.617 69.6641 129.161C66.3237 125.71 62.8434 120.489 62.134 113.317L59.874 113.54ZM71.6212 76.1332C71.6212 76.9625 70.9489 77.6348 70.1195 77.6348V79.9058C72.2031 79.9058 73.8921 78.2167 73.8921 76.1332H71.6212ZM70.1195 74.6316C70.9489 74.6316 71.6212 75.3039 71.6212 76.1332H73.8921C73.8921 74.0497 72.2031 72.3606 70.1195 72.3606V74.6316ZM68.6179 76.1332C68.6179 75.3039 69.2902 74.6316 70.1195 74.6316V72.3606C68.036 72.3606 66.3469 74.0497 66.3469 76.1332H68.6179ZM70.1195 77.6348C69.2902 77.6348 68.6179 76.9625 68.6179 76.1332H66.3469C66.3469 78.2167 68.036 79.9058 70.1195 79.9058V77.6348Z" fill="black"/>
</g>
</g>
<defs>
<filter id="filter0_d_816_338" x="-0.437447" y="26.6327" width="189.993" height="190.183" filterUnits="userSpaceOnUse" color-interpolation-filters="sRGB">
<feFlood flood-opacity="0" result="BackgroundImageFix"/>
<feColorMatrix in="SourceAlpha" type="matrix" values="0 0 0 0 0 0 0 0 0 0 0 0 0 0 0 0 0 0 127 0" result="hardAlpha"/>
<feOffset dy="9.856"/>
<feGaussianBlur stdDeviation="24.64"/>
<feComposite in2="hardAlpha" operator="out"/>
<feColorMatrix type="matrix" values="0 0 0 0 0 0 0 0 0 0 0 0 0 0 0 0 0 0 0.1 0"/>
<feBlend mode="normal" in2="BackgroundImageFix" result="effect1_dropShadow_816_338"/>
<feBlend mode="normal" in="SourceGraphic" in2="effect1_dropShadow_816_338" result="shape"/>
</filter>
<linearGradient id="paint0_linear_816_338" x1="36.5" y1="49" x2="147.5" y2="179.5" gradientUnits="userSpaceOnUse">
<stop stop-color="#FF6A00"/>
<stop offset="1" stop-color="#EF453C"/>
</linearGradient>
<clipPath id="clip0_816_338">
<rect x="16" y="41" width="142" height="142" rx="33.2812" fill="white"/>
</clipPath>
</defs>
</svg>
